<?xml version="1.0" encoding="UTF-8" standalone="no"?>
<svg width="912px" height="344px" viewBox="0 0 912 344" version="1.1" xmlns="http://www.w3.org/2000/svg" xmlns:xlink="http://www.w3.org/1999/xlink" xmlns:sketch="http://www.bohemiancoding.com/sketch/ns">
    <!-- Generator: Sketch 3.0.2 (7799) - http://www.bohemiancoding.com/sketch -->
    <title>mclink copy</title>
    <description>Created with Sketch.</description>
    <defs></defs>
    <g id="Page-1" stroke="none" stroke-width="1" fill="none" fill-rule="evenodd" sketch:type="MSPage">
        <g id="g14" sketch:type="MSLayerGroup" transform="translate(456.499997, 171.534660) scale(1, -1) translate(-456.499997, -171.534660) translate(0.999997, 0.034660)">
            <g id="g20" transform="translate(0.128933, 0.113333)" fill="#00B7CD" sketch:type="MSShapeGroup">
                <path d="M494.666654,231.999994 C494.666654,273.11066 531.750653,310.918659 593.790652,340.961325 C570.738652,341.967991 547.222653,342.511991 523.318654,342.511991 C234.233327,342.511991 -0.11733333,265.901327 -0.11733333,171.409329 C-0.11733333,76.9079981 234.233327,0.297333326 523.318654,0.297333326 C676.593316,0.297333326 814.47198,21.8279995 910.199977,56.1439986 C676.535983,65.8053317 494.666654,140.83733 494.666654,231.999994" id="path22"></path>
            </g>
            <g id="g24" transform="translate(209.837861, 129.978530)" fill="#FFFFFF" sketch:type="MSShapeGroup">
                <path d="M0,106.666664 L26.6013327,113.92133 C28.2119993,111.282664 29.5306659,107.470664 30.5573326,102.489331 C38.471999,110.107997 47.6306655,113.92133 58.0386652,113.92133 C69.6146649,113.92133 78.7026647,109.009331 85.2986645,99.1919975 C94.9719976,109.009331 105.595997,113.92133 117.175997,113.92133 C127.139997,113.92133 134.907997,111.207997 140.478663,105.786664 C145.315996,101.094664 147.73333,92.301331 147.73333,79.4066647 L147.73333,-0.615999985 L119.154664,-0.615999985 L119.154664,73.6906648 C119.154664,79.4066647 118.858664,83.0679979 118.274664,84.6826645 C117.099997,88.0519978 114.31733,89.7386644 109.921331,89.7386644 C103.909331,89.7386644 97.3893309,86.5853312 90.3546644,80.2853313 L90.3546644,-0.615999985 L62.4346651,-0.615999985 L62.4346651,72.5906649 C62.4346651,78.5986647 61.9959985,82.5559979 61.1159985,84.4626646 C59.8039985,88.1239978 56.8226652,89.9586644 52.1706654,89.9586644 C45.7719989,89.9586644 39.371999,87.0999978 32.9759992,81.3853313 L32.9759992,-0.615999985 L4.17733323,-0.615999985 L4.17733323,77.8666647 C4.17733323,92.081331 2.7826666,101.682664 0,106.666664" id="path26"></path>
            </g>
            <g id="g28" transform="translate(379.972657, 126.914663)" fill="#FFFFFF" sketch:type="MSShapeGroup">
                <path d="M83.9999979,105.333331 L69.7119983,85.9866645 C63.4079984,91.8479977 57.4719986,94.781331 51.9039987,94.781331 C39.1533324,94.781331 32.7773325,82.1746646 32.7773325,56.9679986 C32.7773325,43.0426656 34.6813325,33.5893325 38.4933324,28.6093326 C41.715999,24.3559994 46.1119988,22.2319994 51.6839987,22.2319994 C58.1319985,22.2319994 64.874665,25.310666 71.9093315,31.4666659 L73.6679982,33.0053325 L87.0786645,15.3146663 C83.4133312,11.673333 79.967998,8.90799978 76.7466647,7.01599982 C68.8319983,2.35733327 59.6706652,0.0293333326 49.2653321,0.0293333326 C33.7293325,0.0293333326 21.6759995,5.11066654 13.1026663,15.277333 C4.52799989,25.4439994 0.241333327,39.671999 0.241333327,57.9613319 C0.241333327,82.2426646 7.9359998,99.5799975 23.3253328,109.967997 C31.5306659,115.52533 40.835999,118.303997 51.2453321,118.303997 C59.4506652,118.303997 66.7053317,116.61733 73.0093315,113.247997 C76.2306648,111.489331 79.895998,108.850664 83.9999979,105.333331" id="path30"></path>
            </g>
            <g id="g32" transform="translate(577.165319, 126.708930)" fill="#373535" sketch:type="MSShapeGroup">
                <path d="M30.6666659,165.333329 C31.6906659,159.617329 32.2053325,149.86933 32.2053325,136.094663 L32.2053325,48.3773321 C32.2053325,34.0119991 32.8266658,25.7333327 34.0746658,23.5359994 C35.3173325,21.3359995 37.3346657,20.2373328 40.119999,20.2373328 C41.291999,20.2373328 42.3906656,20.3826662 43.4173322,20.6773328 L48.4733321,3.27599992 C43.1973323,1.2493333 37.3346657,0.231999994 30.8866659,0.231999994 C17.2559996,0.231999994 8.53466645,5.3533332 4.72533322,15.6013329 C2.96666659,20.2813328 2.08666661,28.6986659 2.08666661,40.847999 L2.08666661,124.71733 C2.08666661,137.887997 1.57199996,149.158663 0.547999986,158.527996 L30.6666659,165.333329 L30.6666659,165.333329 Z" id="path34"></path>
            </g>
            <g id="g36" transform="translate(636.162784, 129.273463)" fill="#373535" sketch:type="MSShapeGroup">
                <path d="M2.6666666,110.666664 L32.1253325,115.282664 L32.1253325,0.0853333312 L2.6666666,0.0853333312 L2.6666666,110.666664 L2.6666666,110.666664 Z M17.8359996,161.889329 C22.8159994,161.889329 27.030666,160.130663 30.4759992,156.613329 C33.9173325,153.095996 35.6426658,148.771996 35.6426658,143.642663 C35.6426658,138.658663 33.8839992,134.371997 30.3653326,130.78133 C26.8493327,127.18933 22.5253328,125.395997 17.3959996,125.395997 C12.4119997,125.395997 8.16266646,127.18933 4.64399988,130.78133 C1.12799997,134.371997 -0.631999984,138.658663 -0.631999984,143.642663 C-0.631999984,148.623996 1.1613333,152.910663 4.75466655,156.503996 C8.34533312,160.093329 12.7026663,161.889329 17.8359996,161.889329 L17.8359996,161.889329 Z" id="path38"></path>
            </g>
            <g id="g40" transform="translate(686.531183, 129.302130)" fill="#373535" sketch:type="MSShapeGroup">
                <path d="M0,107.999997 L26.1613327,115.474664 C28.9439993,110.638664 30.3386659,105.945331 30.3386659,101.403997 C32.9759992,103.306664 37.2986657,106.093331 43.3093323,109.758664 C49.3173321,112.979997 56.0599986,114.594664 63.5346651,114.594664 C69.8346649,114.594664 75.4786648,113.090664 80.4626647,110.087997 C85.4439979,107.082664 88.8159978,103.163997 90.5759977,98.3266642 C92.0386644,94.369331 92.773331,89.0173311 92.773331,82.2773313 L92.773331,0.0573333319 L63.5346651,0.0573333319 L63.5346651,73.0853315 C63.5346651,78.639998 63.0986651,82.4439979 62.2266651,84.4906646 C60.9146651,87.8493311 58.0773319,89.5333311 53.7146653,89.5333311 C47.5999988,89.5333311 40.835999,86.1693312 33.4173325,79.443998 L33.4173325,0.0573333319 L3.95866657,0.0573333319 L3.95866657,81.6186646 C3.95866657,91.7319977 2.6386666,100.525331 0,107.999997" id="path42"></path>
            </g>
            <g id="g44" transform="translate(798.430913, 129.918663)" fill="#373535" sketch:type="MSShapeGroup">
                <path d="M61.3333318,111.999997 L96.7279976,111.999997 L60.8946651,64.9533317 L105.082664,-0.558666653 L70.3479982,-0.558666653 L32.5333325,63.1946651 L61.3333318,111.999997 L61.3333318,111.999997 Z M0.437333322,155.527996 L30.1159992,162.782663 C31.2879992,155.307996 31.8746659,143.14133 31.8746659,126.28933 L31.8746659,-0.558666653 L2.41599994,-0.558666653 L2.41599994,126.28933 C2.41599994,136.986663 1.75599996,146.734663 0.437333322,155.527996 L0.437333322,155.527996 Z" id="path46"></path>
            </g>
        </g>
    </g>
</svg>