<?xml version="1.0" encoding="UTF-8" ?>
<!DOCTYPE svg PUBLIC "-//W3C//DTD SVG 1.1//EN" "http://www.w3.org/Graphics/SVG/1.1/DTD/svg11.dtd">
<svg width="180pt" height="96pt" viewBox="0 0 180 96" version="1.1" xmlns="http://www.w3.org/2000/svg">
<g id="#ffffffff">
<path fill="#ffffff" opacity="1.00" d=" M 0.00 0.00 L 6.40 0.00 C 4.45 1.17 2.71 2.64 1.17 4.32 C 0.97 5.53 0.58 6.69 0.00 7.77 L 0.00 0.00 Z" />
<path fill="#ffffff" opacity="1.00" d=" M 80.29 0.00 L 104.50 0.00 C 102.04 1.23 99.99 3.15 98.54 5.48 C 97.72 8.02 97.57 10.97 98.61 13.47 C 98.87 13.98 99.38 15.00 99.64 15.52 C 100.24 16.51 100.93 17.45 101.74 18.28 C 108.25 24.77 114.78 31.24 121.22 37.79 C 122.21 38.79 123.31 39.66 124.53 40.37 C 127.80 42.43 131.90 42.51 135.54 41.47 C 142.74 35.41 148.96 28.24 155.77 21.74 C 158.04 19.38 160.63 17.29 162.43 14.53 C 162.72 13.52 163.01 12.52 163.30 11.52 C 164.19 10.44 164.13 9.42 163.11 8.46 C 163.04 7.47 162.98 6.48 162.92 5.49 C 162.04 4.52 161.16 3.52 160.68 2.28 C 159.18 1.57 157.72 0.79 156.27 0.00 L 180.00 0.00 L 180.00 96.00 L 171.49 96.00 C 172.63 95.26 174.00 94.98 175.17 94.29 C 176.39 92.79 177.20 91.00 178.43 89.49 C 179.19 87.60 179.56 85.15 178.14 83.46 C 178.10 82.95 178.00 81.92 177.95 81.40 C 176.27 79.66 174.58 77.90 172.52 76.60 C 170.46 76.09 168.47 75.33 166.62 74.31 C 166.10 74.06 165.06 73.57 164.54 73.32 C 162.31 71.82 160.03 70.42 157.63 69.20 C 156.26 68.63 154.88 68.10 153.44 67.72 C 152.47 67.27 151.51 66.80 150.57 66.31 C 149.17 65.45 147.84 64.49 146.40 63.72 C 145.07 63.08 143.77 62.33 142.75 61.26 C 122.74 41.22 102.74 21.18 82.67 1.20 C 82.08 0.90 80.89 0.30 80.29 0.00 Z" />
<path fill="#ffffff" opacity="1.00" d=" M 8.41 1.13 C 31.79 1.32 55.18 1.28 78.57 1.14 C 74.75 1.74 70.89 1.82 67.05 1.67 C 50.02 1.68 32.99 1.68 15.97 1.73 C 13.44 1.72 10.92 1.41 8.41 1.13 Z" />
<path fill="#ffffff" opacity="1.00" d=" M 106.51 1.09 C 122.85 1.37 139.19 1.22 155.53 1.19 C 146.04 2.24 136.46 1.44 126.93 1.68 C 120.12 1.44 113.26 2.22 106.51 1.09 Z" />
<path fill="#ffffff" opacity="1.00" d=" M 0.00 12.60 C 1.79 15.56 4.17 18.26 7.34 19.78 C 7.86 20.01 8.91 20.47 9.43 20.71 C 9.92 20.96 10.92 21.48 11.42 21.73 C 11.92 21.98 12.93 22.48 13.43 22.73 C 14.77 23.38 16.08 24.06 17.40 24.73 C 18.45 25.25 19.52 25.73 20.56 26.27 C 22.84 27.44 25.15 28.53 27.38 29.78 C 28.60 30.30 29.83 30.80 31.06 31.29 C 30.99 42.43 31.08 53.56 30.99 64.69 C 29.49 65.30 28.00 65.97 26.56 66.71 C 25.51 67.23 24.47 67.77 23.41 68.26 C 21.79 69.07 20.20 69.93 18.57 70.73 C 16.85 71.56 15.14 72.43 13.42 73.27 C 12.92 73.52 11.92 74.02 11.42 74.28 C 10.91 74.53 9.90 75.04 9.40 75.29 C 6.14 76.51 3.42 78.68 1.21 81.33 C 0.90 81.93 0.30 83.12 0.00 83.71 L 0.00 12.60 Z" />
<path fill="#ffffff" opacity="1.00" d=" M 58.00 43.76 C 66.34 51.48 74.09 59.87 82.30 67.73 C 84.10 68.89 81.34 70.03 80.31 70.22 C 79.81 70.47 78.81 70.96 78.32 71.21 C 77.32 71.68 76.43 72.29 75.67 73.03 C 73.24 73.35 71.52 71.39 69.34 70.76 C 68.11 69.89 66.72 69.30 65.33 68.76 C 63.91 67.67 62.10 67.30 60.66 66.24 C 59.62 66.03 58.76 65.52 58.08 64.69 C 57.88 57.72 58.05 50.74 58.00 43.76 Z" />
<path fill="#ffffff" opacity="1.00" d=" M 0.00 88.52 C 0.76 89.40 1.15 90.45 1.14 91.67 C 2.20 92.71 3.28 93.75 4.33 94.80 C 4.93 95.10 6.12 95.70 6.72 96.00 L 0.00 96.00 L 0.00 88.52 Z" />
</g>
<g id="#050505ff">
<path fill="#050505" opacity="1.00" d=" M 6.40 0.00 L 80.29 0.00 C 80.89 0.30 82.08 0.90 82.67 1.20 C 102.74 21.18 122.74 41.22 142.75 61.26 C 143.77 62.33 145.07 63.08 146.40 63.72 C 147.84 64.49 149.17 65.45 150.57 66.31 C 151.51 66.80 152.47 67.27 153.44 67.72 C 154.88 68.10 156.26 68.63 157.63 69.20 C 160.03 70.42 162.31 71.82 164.54 73.32 C 165.06 73.57 166.10 74.06 166.62 74.31 C 168.47 75.33 170.46 76.09 172.52 76.60 C 174.58 77.90 176.27 79.66 177.95 81.40 C 178.00 81.92 178.10 82.95 178.14 83.46 C 179.56 85.15 179.19 87.60 178.43 89.49 C 177.20 91.00 176.39 92.79 175.17 94.29 C 174.00 94.98 172.63 95.26 171.49 96.00 L 6.72 96.00 C 6.12 95.70 4.93 95.10 4.33 94.80 C 3.28 93.75 2.20 92.71 1.14 91.67 C 1.15 90.45 0.76 89.40 0.00 88.52 L 0.00 83.71 C 0.30 83.12 0.90 81.93 1.21 81.33 C 3.42 78.68 6.14 76.51 9.40 75.29 C 9.90 75.04 10.91 74.53 11.42 74.28 C 11.92 74.02 12.92 73.52 13.42 73.27 C 15.14 72.43 16.85 71.56 18.57 70.73 C 20.20 69.93 21.79 69.07 23.41 68.26 C 24.47 67.77 25.51 67.23 26.56 66.71 C 28.00 65.97 29.49 65.30 30.99 64.69 C 31.08 53.56 30.99 42.43 31.06 31.29 C 29.83 30.80 28.60 30.30 27.38 29.78 C 25.15 28.53 22.84 27.44 20.56 26.27 C 19.52 25.73 18.45 25.25 17.40 24.73 C 16.08 24.06 14.77 23.38 13.43 22.73 C 12.93 22.48 11.92 21.98 11.42 21.73 C 10.92 21.48 9.92 20.96 9.43 20.71 C 8.91 20.47 7.86 20.01 7.34 19.78 C 4.17 18.26 1.79 15.56 0.00 12.60 L 0.00 7.77 C 0.58 6.69 0.97 5.53 1.17 4.32 C 2.71 2.64 4.45 1.17 6.40 0.00 M 1.44 12.80 C 4.57 18.84 11.97 20.09 17.40 23.29 C 22.01 25.88 26.86 28.00 31.54 30.44 C 31.62 31.00 31.79 32.10 31.88 32.66 C 31.51 39.46 31.59 46.28 31.78 53.09 C 31.59 57.36 31.61 61.63 31.61 65.91 C 23.35 68.97 15.70 73.83 7.63 77.48 C 3.73 79.01 1.07 82.63 1.03 86.85 C 1.39 91.35 5.27 95.34 9.92 95.02 C 62.94 95.06 115.97 95.07 168.98 95.01 C 174.49 95.38 178.59 89.64 177.86 84.48 C 176.64 82.06 175.31 79.46 172.71 78.26 C 168.70 76.26 164.71 74.20 160.64 72.32 C 154.04 68.25 145.94 66.38 140.52 60.61 C 135.53 55.63 130.63 50.56 125.56 45.65 C 121.11 41.14 116.64 36.64 112.15 32.17 L 112.01 32.19 C 108.13 28.03 104.01 24.11 100.04 20.04 L 99.92 20.05 C 96.61 16.57 93.16 13.24 89.82 9.80 L 89.58 9.84 C 86.22 6.72 83.48 1.67 78.57 1.14 C 55.18 1.28 31.79 1.32 8.41 1.13 C 2.77 1.36 0.14 7.89 1.44 12.80 Z" />
<path fill="#050505" opacity="1.00" d=" M 104.50 0.00 L 156.27 0.00 C 157.72 0.79 159.18 1.57 160.68 2.28 C 161.16 3.52 162.04 4.52 162.92 5.49 C 162.98 6.48 163.04 7.47 163.11 8.46 C 164.13 9.42 164.19 10.44 163.30 11.52 C 163.01 12.52 162.72 13.52 162.43 14.53 C 160.63 17.29 158.04 19.38 155.77 21.74 C 148.96 28.24 142.74 35.41 135.54 41.47 C 131.90 42.51 127.80 42.43 124.53 40.37 C 123.31 39.66 122.21 38.79 121.22 37.79 C 114.78 31.24 108.25 24.77 101.74 18.28 C 100.93 17.45 100.24 16.51 99.64 15.52 C 99.38 15.00 98.87 13.98 98.61 13.47 C 97.57 10.97 97.72 8.02 98.54 5.48 C 99.99 3.15 102.04 1.23 104.50 0.00 M 99.88 13.82 L 100.07 13.74 C 103.04 18.71 108.02 22.08 111.82 26.40 C 115.97 30.57 120.09 34.77 124.37 38.82 C 127.87 42.22 134.12 42.02 137.45 38.46 C 142.12 33.86 146.78 29.24 151.36 24.56 C 154.74 21.01 158.61 17.91 161.50 13.92 C 164.22 9.13 161.23 1.75 155.53 1.19 C 139.19 1.22 122.85 1.37 106.51 1.09 C 100.47 1.17 97.20 8.81 99.88 13.82 Z" />
<path fill="#050505" opacity="1.00" d=" M 56.97 40.58 C 60.08 43.94 63.45 47.05 66.66 50.33 C 71.54 55.33 76.58 60.17 81.49 65.14 C 82.69 66.35 83.90 67.54 85.11 68.73 C 81.82 70.81 78.36 72.59 74.93 74.42 C 68.87 71.52 62.89 68.47 56.91 65.41 C 57.01 61.41 57.05 57.40 56.94 53.40 C 56.97 49.13 57.07 44.85 56.97 40.58 M 58.00 43.76 C 58.05 50.74 57.88 57.72 58.08 64.69 C 58.76 65.52 59.62 66.03 60.66 66.24 C 62.10 67.30 63.91 67.67 65.33 68.76 C 66.72 69.30 68.11 69.89 69.34 70.76 C 71.52 71.39 73.24 73.35 75.67 73.03 C 76.43 72.29 77.32 71.68 78.32 71.21 C 78.81 70.96 79.81 70.47 80.31 70.22 C 81.34 70.03 84.10 68.89 82.30 67.73 C 74.09 59.87 66.34 51.48 58.00 43.76 Z" />
</g>
<g id="#929292ff">
<path fill="#929292" opacity="1.00" d=" M 1.44 12.80 C 0.14 7.89 2.77 1.36 8.41 1.13 C 10.92 1.41 13.44 1.72 15.97 1.73 C 32.99 1.68 50.02 1.68 67.05 1.67 C 70.89 1.82 74.75 1.74 78.57 1.14 C 83.48 1.67 86.22 6.72 89.58 9.84 C 85.90 10.79 82.10 10.64 78.35 10.57 C 77.08 9.72 75.59 9.28 74.06 9.35 C 52.70 9.30 31.34 9.53 9.98 9.24 C 11.59 10.12 13.20 11.01 14.83 11.87 C 10.55 13.60 5.91 12.49 1.44 12.80 Z" />
<path fill="#929292" opacity="1.00" d=" M 99.88 13.82 C 97.20 8.81 100.47 1.17 106.51 1.09 C 113.26 2.22 120.12 1.44 126.93 1.68 C 136.46 1.44 146.04 2.24 155.53 1.19 C 161.23 1.75 164.22 9.13 161.50 13.92 C 158.05 12.88 154.49 12.32 150.91 11.99 C 151.65 11.11 152.35 10.21 153.06 9.31 C 138.04 9.41 123.02 9.42 108.00 9.30 C 108.79 10.25 109.58 11.19 110.41 12.11 C 107.01 13.07 103.26 12.03 100.07 13.74 L 99.88 13.82 Z" />
</g>
<g id="#c8c8c8ff">
<path fill="#c8c8c8" opacity="1.00" d=" M 9.98 9.24 C 31.34 9.53 52.70 9.30 74.06 9.35 C 75.59 9.28 77.08 9.72 78.35 10.57 C 81.84 14.47 85.51 18.19 89.23 21.87 C 90.35 22.99 91.47 24.11 92.61 25.22 C 80.33 26.87 67.85 24.75 55.56 26.37 C 53.40 24.16 51.15 22.06 48.97 19.87 C 48.75 19.62 48.29 19.11 48.06 18.86 C 47.97 24.04 47.94 29.22 47.97 34.40 C 47.53 32.38 47.00 30.37 46.50 28.37 C 44.36 28.23 42.31 28.85 40.43 29.85 C 40.46 28.12 40.50 26.39 40.53 24.66 C 37.95 23.33 35.34 22.06 32.72 20.78 C 26.81 17.71 20.80 14.83 14.83 11.87 C 13.20 11.01 11.59 10.12 9.98 9.24 Z" />
<path fill="#c8c8c8" opacity="1.00" d=" M 108.00 9.30 C 123.02 9.42 138.04 9.41 153.06 9.31 C 152.35 10.21 151.65 11.11 150.91 11.99 C 147.24 15.77 143.38 19.35 139.74 23.16 C 136.65 26.14 133.82 29.40 130.42 32.04 C 127.51 28.99 124.44 26.10 121.48 23.12 C 117.89 19.35 114.09 15.79 110.41 12.11 C 109.58 11.19 108.79 10.25 108.00 9.30 Z" />
</g>
<g id="#898989ff">
<path fill="#898989" opacity="1.00" d=" M 78.35 10.57 C 82.10 10.64 85.90 10.79 89.58 9.84 L 89.82 9.80 C 93.16 13.24 96.61 16.57 99.92 20.05 C 96.36 20.66 92.35 19.57 89.23 21.87 C 85.51 18.19 81.84 14.47 78.35 10.57 Z" />
</g>
<g id="#878787ff">
<path fill="#878787" opacity="1.00" d=" M 1.44 12.80 C 5.91 12.49 10.55 13.60 14.83 11.87 C 20.80 14.83 26.81 17.71 32.72 20.78 C 30.02 23.54 26.27 22.01 22.96 21.92 C 21.00 21.73 19.20 22.69 17.40 23.29 C 11.97 20.09 4.57 18.84 1.44 12.80 Z" />
</g>
<g id="#868686ff">
<path fill="#868686" opacity="1.00" d=" M 100.07 13.74 C 103.26 12.03 107.01 13.07 110.41 12.11 C 114.09 15.79 117.89 19.35 121.48 23.12 C 118.61 23.74 115.70 24.13 112.77 24.37 C 112.46 25.05 112.14 25.72 111.82 26.40 C 108.02 22.08 103.04 18.71 100.07 13.74 Z" />
<path fill="#868686" opacity="1.00" d=" M 150.91 11.99 C 154.49 12.32 158.05 12.88 161.50 13.92 C 158.61 17.91 154.74 21.01 151.36 24.56 C 147.55 23.65 143.61 23.61 139.74 23.16 C 143.38 19.35 147.24 15.77 150.91 11.99 Z" />
</g>
<g id="#6a6a6aff">
<path fill="#6a6a6a" opacity="1.00" d=" M 48.06 18.86 C 48.29 19.11 48.75 19.62 48.97 19.87 C 48.58 27.44 49.05 35.02 49.44 42.59 C 51.51 42.79 53.58 43.00 55.66 43.21 C 55.83 46.63 56.31 50.03 56.94 53.40 C 57.05 57.40 57.01 61.41 56.91 65.41 C 55.34 63.04 55.71 60.08 55.46 57.38 C 53.43 57.42 51.40 57.47 49.38 57.51 C 49.02 53.54 48.66 49.57 48.05 45.63 C 47.94 41.89 48.06 38.14 47.97 34.40 C 47.94 29.22 47.97 24.04 48.06 18.86 Z" />
</g>
<g id="#787878ff">
<path fill="#787878" opacity="1.00" d=" M 48.97 19.87 C 51.15 22.06 53.40 24.16 55.56 26.37 C 58.19 29.08 60.90 31.71 63.59 34.36 C 65.18 35.96 66.74 37.59 68.32 39.19 C 64.36 39.21 60.41 38.96 56.46 39.00 C 56.59 39.40 56.84 40.19 56.97 40.58 C 57.07 44.85 56.97 49.13 56.94 53.40 C 56.31 50.03 55.83 46.63 55.66 43.21 C 53.58 43.00 51.51 42.79 49.44 42.59 C 49.05 35.02 48.58 27.44 48.97 19.87 Z" />
</g>
<g id="#7f7f7fff">
<path fill="#7f7f7f" opacity="1.00" d=" M 89.23 21.87 C 92.35 19.57 96.36 20.66 99.92 20.05 L 100.04 20.04 C 104.01 24.11 108.13 28.03 112.01 32.19 C 108.45 32.82 104.61 32.06 101.31 33.87 C 101.13 33.70 100.77 33.36 100.59 33.19 C 97.87 30.60 95.34 27.81 92.61 25.22 C 91.47 24.11 90.35 22.99 89.23 21.87 Z" />
<path fill="#7f7f7f" opacity="1.00" d=" M 32.72 20.78 C 35.34 22.06 37.95 23.33 40.53 24.66 C 40.09 27.22 39.67 29.77 39.26 32.32 C 36.80 32.57 34.34 32.70 31.88 32.66 C 31.79 32.10 31.62 31.00 31.54 30.44 C 26.86 28.00 22.01 25.88 17.40 23.29 C 19.20 22.69 21.00 21.73 22.96 21.92 C 26.27 22.01 30.02 23.54 32.72 20.78 Z" />
</g>
<g id="#7a7a7aff">
<path fill="#7a7a7a" opacity="1.00" d=" M 112.77 24.37 C 115.70 24.13 118.61 23.74 121.48 23.12 C 124.44 26.10 127.51 28.99 130.42 32.04 C 133.82 29.40 136.65 26.14 139.74 23.16 C 143.61 23.61 147.55 23.65 151.36 24.56 C 146.78 29.24 142.12 33.86 137.45 38.46 C 134.12 42.02 127.87 42.22 124.37 38.82 C 120.09 34.77 115.97 30.57 111.82 26.40 C 112.14 25.72 112.46 25.05 112.77 24.37 Z" />
</g>
<g id="#707070ff">
<path fill="#707070" opacity="1.00" d=" M 40.53 24.66 C 40.50 26.39 40.46 28.12 40.43 29.85 C 40.27 36.17 40.69 42.49 40.52 48.80 C 40.13 50.40 39.64 51.96 39.18 53.54 C 36.70 53.67 34.22 53.55 31.78 53.09 C 31.59 46.28 31.51 39.46 31.88 32.66 C 34.34 32.70 36.80 32.57 39.26 32.32 C 39.67 29.77 40.09 27.22 40.53 24.66 Z" />
</g>
<g id="#bcbcbcff">
<path fill="#bcbcbc" opacity="1.00" d=" M 92.61 25.22 C 95.34 27.81 97.87 30.60 100.59 33.19 C 93.88 34.94 86.88 33.76 80.03 33.99 C 74.54 33.85 69.07 34.47 63.59 34.36 C 60.90 31.71 58.19 29.08 55.56 26.37 C 67.85 24.75 80.33 26.87 92.61 25.22 Z" />
</g>
<g id="#b3b3b3ff">
<path fill="#b3b3b3" opacity="1.00" d=" M 40.43 29.85 C 42.31 28.85 44.36 28.23 46.50 28.37 C 47.00 30.37 47.53 32.38 47.97 34.40 C 48.06 38.14 47.94 41.89 48.05 45.63 C 47.99 48.50 47.92 51.37 47.99 54.24 C 47.49 52.58 46.90 50.95 46.34 49.31 C 44.35 49.68 42.40 50.19 40.48 50.80 C 40.49 50.30 40.51 49.30 40.52 48.80 C 40.69 42.49 40.27 36.17 40.43 29.85 Z" />
</g>
<g id="#737373ff">
<path fill="#737373" opacity="1.00" d=" M 101.31 33.87 C 104.61 32.06 108.45 32.82 112.01 32.19 L 112.15 32.17 C 116.64 36.64 121.11 41.14 125.56 45.65 C 121.77 45.84 117.99 46.14 114.26 46.80 C 112.36 44.95 110.47 43.10 108.59 41.23 C 106.18 38.76 103.84 36.22 101.31 33.87 Z" />
</g>
<g id="#b4b4b4ff">
<path fill="#b4b4b4" opacity="1.00" d=" M 100.59 33.19 C 100.77 33.36 101.13 33.70 101.31 33.87 C 103.84 36.22 106.18 38.76 108.59 41.23 C 103.50 42.83 98.21 41.02 93.03 41.85 C 85.89 42.77 78.67 40.51 71.61 42.43 C 70.51 41.35 69.40 40.28 68.32 39.19 C 66.74 37.59 65.18 35.96 63.59 34.36 C 69.07 34.47 74.54 33.85 80.03 33.99 C 86.88 33.76 93.88 34.94 100.59 33.19 Z" />
</g>
<g id="#6f6f6fff">
<path fill="#6f6f6f" opacity="1.00" d=" M 56.46 39.00 C 60.41 38.96 64.36 39.21 68.32 39.19 C 69.40 40.28 70.51 41.35 71.61 42.43 C 73.84 44.64 76.05 46.88 78.25 49.12 C 74.37 49.41 70.46 49.40 66.66 50.33 C 63.45 47.05 60.08 43.94 56.97 40.58 C 56.84 40.19 56.59 39.40 56.46 39.00 Z" />
</g>
<g id="#adadadff">
<path fill="#adadad" opacity="1.00" d=" M 71.61 42.43 C 78.67 40.51 85.89 42.77 93.03 41.85 C 98.21 41.02 103.50 42.83 108.59 41.23 C 110.47 43.10 112.36 44.95 114.26 46.80 C 114.88 47.42 116.13 48.65 116.76 49.26 C 110.98 51.28 104.91 49.49 98.99 49.91 C 92.50 50.39 86.00 49.88 79.52 50.41 C 79.20 50.08 78.56 49.44 78.25 49.12 C 76.05 46.88 73.84 44.64 71.61 42.43 Z" />
</g>
<g id="#565656ff">
<path fill="#565656" opacity="1.00" d=" M 48.05 45.63 C 48.66 49.57 49.02 53.54 49.38 57.51 C 51.40 57.47 53.43 57.42 55.46 57.38 C 55.71 60.08 55.34 63.04 56.91 65.41 C 62.89 68.47 68.87 71.52 74.93 74.42 C 78.36 72.59 81.82 70.81 85.11 68.73 C 83.90 67.54 82.69 66.35 81.49 65.14 C 84.73 63.01 88.63 63.82 92.25 63.22 C 94.69 65.77 97.23 68.22 99.79 70.66 C 94.92 73.89 89.66 76.45 84.56 79.28 C 81.37 80.98 78.20 82.73 74.97 84.35 C 70.77 82.46 66.75 80.19 62.59 78.22 C 57.68 75.88 53.00 73.09 47.99 70.97 C 48.00 68.72 48.02 66.48 47.97 64.24 C 47.98 60.91 48.10 57.57 47.99 54.24 C 47.92 51.37 47.99 48.50 48.05 45.63 Z" />
</g>
<g id="#676767ff">
<path fill="#676767" opacity="1.00" d=" M 114.26 46.80 C 117.99 46.14 121.77 45.84 125.56 45.65 C 130.63 50.56 135.53 55.63 140.52 60.61 C 136.63 60.83 132.57 59.68 128.81 61.01 L 128.36 61.19 C 124.54 57.17 120.72 53.14 116.76 49.26 C 116.13 48.65 114.88 47.42 114.26 46.80 Z" />
</g>
<g id="#616161ff">
<path fill="#616161" opacity="1.00" d=" M 39.18 53.54 C 39.64 51.96 40.13 50.40 40.52 48.80 C 40.51 49.30 40.49 50.30 40.48 50.80 C 40.45 53.79 40.47 56.78 40.48 59.77 C 40.48 63.49 40.55 67.21 40.70 70.93 L 40.00 71.00 C 39.88 69.21 39.76 67.43 39.65 65.64 C 36.98 65.96 34.29 65.98 31.61 65.91 C 31.61 61.63 31.59 57.36 31.78 53.09 C 34.22 53.55 36.70 53.67 39.18 53.54 Z" />
</g>
<g id="#a3a3a3ff">
<path fill="#a3a3a3" opacity="1.00" d=" M 40.48 50.80 C 42.40 50.19 44.35 49.68 46.34 49.31 C 46.90 50.95 47.49 52.58 47.99 54.24 C 48.10 57.57 47.98 60.91 47.97 64.24 C 47.52 62.90 46.99 61.58 46.49 60.26 C 44.49 60.10 42.48 59.94 40.48 59.77 C 40.47 56.78 40.45 53.79 40.48 50.80 Z" />
</g>
<g id="#646464ff">
<path fill="#646464" opacity="1.00" d=" M 66.66 50.33 C 70.46 49.40 74.37 49.41 78.25 49.12 C 78.56 49.44 79.20 50.08 79.52 50.41 C 83.67 54.77 88.20 58.76 92.25 63.22 C 88.63 63.82 84.73 63.01 81.49 65.14 C 76.58 60.17 71.54 55.33 66.66 50.33 Z" />
</g>
<g id="#a1a1a1ff">
<path fill="#a1a1a1" opacity="1.00" d=" M 98.99 49.91 C 104.91 49.49 110.98 51.28 116.76 49.26 C 120.72 53.14 124.54 57.17 128.36 61.19 C 123.40 63.72 117.70 62.21 112.39 62.73 C 105.68 63.35 98.87 61.51 92.25 63.22 C 88.20 58.76 83.67 54.77 79.52 50.41 C 86.00 49.88 92.50 50.39 98.99 49.91 Z" />
</g>
<g id="#979797ff">
<path fill="#979797" opacity="1.00" d=" M 40.48 59.77 C 42.48 59.94 44.49 60.10 46.49 60.26 C 46.99 61.58 47.52 62.90 47.97 64.24 C 48.02 66.48 48.00 68.72 47.99 70.97 C 45.56 70.84 43.13 70.85 40.70 70.93 C 40.55 67.21 40.48 63.49 40.48 59.77 Z" />
</g>
<g id="#5a5a5aff">
<path fill="#5a5a5a" opacity="1.00" d=" M 128.81 61.01 C 132.57 59.68 136.63 60.83 140.52 60.61 C 145.94 66.38 154.04 68.25 160.64 72.32 C 156.20 73.28 151.65 72.64 147.16 72.70 C 146.02 72.57 145.07 73.27 144.12 73.77 C 137.54 71.58 133.51 65.70 128.81 61.01 Z" />
</g>
<g id="#8f8f8fff">
<path fill="#8f8f8f" opacity="1.00" d=" M 128.36 61.19 L 128.81 61.01 C 133.51 65.70 137.54 71.58 144.12 73.77 C 147.64 75.49 151.07 77.37 154.58 79.10 C 149.58 80.23 144.43 79.54 139.38 80.12 C 134.25 80.65 129.13 79.39 124.01 80.01 C 116.68 80.86 109.35 78.98 102.02 79.98 C 96.20 80.76 90.34 80.03 84.56 79.28 C 89.66 76.45 94.92 73.89 99.79 70.66 C 97.23 68.22 94.69 65.77 92.25 63.22 C 98.87 61.51 105.68 63.35 112.39 62.73 C 117.70 62.21 123.40 63.72 128.36 61.19 Z" />
</g>
<g id="#535353ff">
<path fill="#535353" opacity="1.00" d=" M 31.61 65.91 C 34.29 65.98 36.98 65.96 39.65 65.64 C 39.76 67.43 39.88 69.21 40.00 71.00 C 35.13 73.41 30.35 75.98 25.48 78.40 C 20.51 80.72 15.73 83.43 10.75 85.76 C 7.45 85.10 4.00 85.03 1.03 86.85 C 1.07 82.63 3.73 79.01 7.63 77.48 C 15.70 73.83 23.35 68.97 31.61 65.91 Z" />
</g>
<g id="#8b8b8bff">
<path fill="#8b8b8b" opacity="1.00" d=" M 25.48 78.40 C 30.35 75.98 35.13 73.41 40.00 71.00 L 40.70 70.93 C 43.13 70.85 45.56 70.84 47.99 70.97 C 53.00 73.09 57.68 75.88 62.59 78.22 C 59.51 80.39 55.71 79.20 52.25 79.32 C 47.07 79.39 41.89 79.48 36.71 79.28 C 32.96 79.10 29.05 79.94 25.48 78.40 Z" />
</g>
<g id="#505050ff">
<path fill="#505050" opacity="1.00" d=" M 144.12 73.77 C 145.07 73.27 146.02 72.57 147.16 72.70 C 151.65 72.64 156.20 73.28 160.64 72.32 C 164.71 74.20 168.70 76.26 172.71 78.26 C 175.31 79.46 176.64 82.06 177.86 84.48 C 173.53 82.84 168.84 83.43 164.35 83.85 C 161.08 82.29 157.85 80.66 154.58 79.10 C 151.07 77.37 147.64 75.49 144.12 73.77 Z" />
</g>
<g id="#818181ff">
<path fill="#818181" opacity="1.00" d=" M 10.75 85.76 C 15.73 83.43 20.51 80.72 25.48 78.40 C 29.05 79.94 32.96 79.10 36.71 79.28 C 41.89 79.48 47.07 79.39 52.25 79.32 C 55.71 79.20 59.51 80.39 62.59 78.22 C 66.75 80.19 70.77 82.46 74.97 84.35 C 78.20 82.73 81.37 80.98 84.56 79.28 C 90.34 80.03 96.20 80.76 102.02 79.98 C 109.35 78.98 116.68 80.86 124.01 80.01 C 129.13 79.39 134.25 80.65 139.38 80.12 C 144.43 79.54 149.58 80.23 154.58 79.10 C 157.85 80.66 161.08 82.29 164.35 83.85 C 165.69 84.51 167.03 85.18 168.37 85.86 C 121.90 86.23 75.41 85.91 28.94 86.02 C 22.88 85.89 16.80 86.32 10.75 85.76 Z" />
</g>
<g id="#454545ff">
<path fill="#454545" opacity="1.00" d=" M 164.35 83.85 C 168.84 83.43 173.53 82.84 177.86 84.48 C 178.59 89.64 174.49 95.38 168.98 95.01 C 115.97 95.07 62.94 95.06 9.92 95.02 C 5.27 95.34 1.39 91.35 1.03 86.85 C 4.00 85.03 7.45 85.10 10.75 85.76 C 16.80 86.32 22.88 85.89 28.94 86.02 C 75.41 85.91 121.90 86.23 168.37 85.86 C 167.03 85.18 165.69 84.51 164.35 83.85 Z" />
</g>
</svg>
