<?xml version="1.0" encoding="UTF-8" standalone="no"?>
<svg
   width="318.95441pt"
   height="144.265pt"
   viewBox="0 0 318.95441 144.265"
   version="1.1"
   id="svg159"
   sodipodi:docname="nedi.svg"
   inkscape:version="1.3.2 (091e20e, 2023-11-25, custom)"
   xmlns:inkscape="http://www.inkscape.org/namespaces/inkscape"
   xmlns:sodipodi="http://sodipodi.sourceforge.net/DTD/sodipodi-0.dtd"
   xmlns="http://www.w3.org/2000/svg"
   xmlns:svg="http://www.w3.org/2000/svg">
  <defs
     id="defs159" />
  <sodipodi:namedview
     id="namedview159"
     pagecolor="#ffffff"
     bordercolor="#000000"
     borderopacity="0.25"
     inkscape:showpageshadow="2"
     inkscape:pageopacity="0.0"
     inkscape:pagecheckerboard="0"
     inkscape:deskcolor="#d1d1d1"
     inkscape:document-units="pt"
     inkscape:zoom="3.0539063"
     inkscape:cx="213.33333"
     inkscape:cy="95.778972"
     inkscape:window-width="1920"
     inkscape:window-height="991"
     inkscape:window-x="-9"
     inkscape:window-y="-9"
     inkscape:window-maximized="1"
     inkscape:current-layer="svg159" />
  <g
     id="#b7b7b7ff"
     transform="translate(0,-0.7349981)">
    <path
       fill="#b7b7b7"
       opacity="1"
       d="m 192.95,7.02 c 0.73,-4.34 5.44,-7.23 9.68,-6 0.29,0.06 0.87,0.17 1.16,0.23 4.14,3.76 7.95,7.85 11.94,11.76 -2.75,0.87 -5.61,1.27 -8.42,1.88 -2.43,-2.27 -4.63,-4.77 -7.12,-6.97 -0.1,2.65 -0.04,5.3 -0.06,7.94 -0.95,3.72 -5.77,2.59 -7.15,5.98 -0.13,-4.94 -0.15,-9.88 -0.03,-14.82 z"
       id="path16" />
    <path
       fill="#b7b7b7"
       opacity="1"
       d="m 156.51,62.17 c 1.77,-1.73 3.51,-3.49 5.34,-5.16 0.95,0.57 1.9,1.15 2.84,1.74 1.51,3.07 4.36,5.13 6.69,7.53 2.34,2.36 4.63,4.76 7,7.09 -3.04,1.22 -6.28,0 -9.42,0.45 -5.06,0.56 -10.16,0.11 -15.23,0.48 -1.51,-1.55 -3.07,-3.04 -4.67,-4.5 2.53,-2.51 4.95,-5.11 7.45,-7.63 z"
       id="path17" />
  </g>
  <g
     id="#dededeff"
     transform="translate(0,-0.7349981)">
    <path
       fill="#dedede"
       opacity="1"
       d="m 200.19,7.92 c 2.49,2.2 4.69,4.7 7.12,6.97 3.1,3.12 6.06,6.39 9.28,9.4 3.3,3.28 6.47,6.7 9.8,9.96 -4.67,1.46 -9.58,0.57 -14.37,0.72 -3.65,0.17 -7.69,-0.8 -10.88,1.47 -0.11,-4.91 -0.04,-9.85 -0.92,-14.7 -0.07,-1.96 -0.11,-3.92 -0.09,-5.88 0.02,-2.64 -0.04,-5.29 0.06,-7.94 z"
       id="path18" />
  </g>
  <g
     id="#adadadff"
     transform="translate(0,-0.7349981)">
    <path
       fill="#adadad"
       opacity="1"
       d="m 215.73,13.01 c 3.59,3.53 7.11,7.15 10.7,10.68 -3.28,0.17 -6.56,0.4 -9.84,0.6 -3.22,-3.01 -6.18,-6.28 -9.28,-9.4 2.81,-0.61 5.67,-1.01 8.42,-1.88 z"
       id="path19" />
  </g>
  <g
     id="#a1a1a1ff"
     transform="translate(0,-0.7349981)">
    <path
       fill="#a1a1a1"
       opacity="1"
       d="m 192.98,21.84 c 1.38,-3.39 6.2,-2.26 7.15,-5.98 -0.02,1.96 0.02,3.92 0.09,5.88 -0.23,5.09 -0.07,10.18 -0.01,15.28 -2.29,2.56 -5.93,1.43 -8.92,2.17 -0.43,1.32 -0.86,2.64 -1.17,4 -0.26,-4.8 0.01,-9.6 -0.08,-14.4 -2.79,2.32 -5.08,5.15 -7.74,7.61 -2.67,-0.63 -5.29,-1.44 -7.87,-2.36 3.49,-3.4 6.86,-6.93 10.35,-10.34 2.12,-2.1 5.38,-2.87 8.2,-1.86 z"
       id="path20" />
    <path
       fill="#a1a1a1"
       opacity="1"
       d="m 216.59,24.29 c 3.28,-0.2 6.56,-0.43 9.84,-0.6 3.13,3.08 6.19,6.23 9.32,9.32 -1.59,2.95 -5.39,1.81 -8.11,2.27 -0.31,-0.26 -0.93,-0.78 -1.25,-1.03 -3.33,-3.26 -6.5,-6.68 -9.8,-9.96 z"
       id="path21" />
  </g>
  <g
     id="#d2d2d2ff"
     transform="translate(0,-0.7349981)">
    <path
       fill="#d2d2d2"
       opacity="1"
       d="m 200.22,21.74 c 0.88,4.85 0.81,9.79 0.92,14.7 3.19,-2.27 7.23,-1.3 10.88,-1.47 4.79,-0.15 9.7,0.74 14.37,-0.72 0.32,0.25 0.94,0.77 1.25,1.03 3.05,3 5.87,6.23 9.04,9.11 l 0.85,0.79 c -2.4,2.24 -5.77,0.67 -8.66,1.17 -7.18,0.86 -14.53,-1.01 -21.6,0.8 -0.17,0.05 -0.51,0.16 -0.68,0.21 0.01,3.44 -0.04,6.87 0.03,10.31 -2.04,-0.1 -4.06,0.18 -5.84,1.22 0.11,-3.02 -0.18,-6.03 -0.48,-9.03 -0.02,-1.69 -0.04,-3.37 -0.04,-5.06 0,-2.59 -0.07,-5.19 -0.05,-7.78 -0.06,-5.1 -0.22,-10.19 0.01,-15.28 z"
       id="path22" />
  </g>
  <g
     id="#a3a3a3ff"
     transform="translate(0,-0.7349981)">
    <path
       fill="#a3a3a3"
       opacity="1"
       d="m 283.23,23.92 c 2.79,-2.79 7.47,-3.43 10.63,-0.88 3.37,3.05 6.43,6.41 9.7,9.57 -3.09,0.2 -6.23,0.28 -9.21,1.19 -1.77,-1.72 -3.47,-3.51 -5.3,-5.17 -2,1.54 -3.65,3.47 -5.47,5.21 -2.61,-0.79 -5.49,-0.71 -7.91,-2.08 l 0.23,-1.19 c 0.16,-0.05 0.5,-0.14 0.66,-0.19 1.26,-0.63 2.21,-1.6 2.87,-2.91 0.03,-0.05 0.1,-0.15 0.13,-0.19 1.31,-0.59 2.25,-1.54 2.81,-2.85 0.29,-0.17 0.57,-0.33 0.86,-0.51 z"
       id="path23" />
  </g>
  <g
     id="#181818d2"
     transform="translate(0,-0.7349981)">
    <path
       fill="#181818"
       opacity="0.82"
       d="m 279.56,27.28 c 0.24,-1.62 1.17,-2.57 2.81,-2.85 -0.56,1.31 -1.5,2.26 -2.81,2.85 z"
       id="path24" />
  </g>
  <g
     id="#191919db"
     transform="translate(0,-0.7349981)">
    <path
       fill="#191919"
       opacity="0.86"
       d="m 276.56,30.38 c 0.2,-1.66 1.16,-2.63 2.87,-2.91 -0.66,1.31 -1.61,2.28 -2.87,2.91 z"
       id="path25" />
  </g>
  <g
     id="#d4d4d4ff"
     transform="translate(0,-0.7349981)">
    <path
       fill="#d4d4d4"
       opacity="1"
       d="m 182.3,36.4 c 2.66,-2.46 4.95,-5.29 7.74,-7.61 0.09,4.8 -0.18,9.6 0.08,14.4 0,1.79 -0.16,3.57 -0.5,5.32 -2.38,-2.24 -4.42,-5.77 -7.5,-6.73 -4.48,4.38 -9,8.74 -13.39,13.21 -1.28,1.32 -2.65,2.55 -4.04,3.76 -0.94,-0.59 -1.89,-1.17 -2.84,-1.74 2.32,-2.13 4.43,-4.46 6.69,-6.65 4.67,-4.57 9.11,-9.37 13.76,-13.96 z"
       id="path26" />
    <path
       fill="#d4d4d4"
       opacity="1"
       d="m 283.58,33.84 c 1.82,-1.74 3.47,-3.67 5.47,-5.21 1.83,1.66 3.53,3.45 5.3,5.17 3.25,3.08 6.04,6.64 9.59,9.4 l -0.52,0.6 c -9.64,0.15 -19.29,0.01 -28.92,0.07 l -0.42,-0.67 c 3.46,-2.81 6.29,-6.29 9.5,-9.36 z"
       id="path27" />
  </g>
  <g
     id="#121212c4"
     transform="translate(0,-0.7349981)">
    <path
       fill="#121212"
       opacity="0.77"
       d="m 266.48,40.84 c 1.3,-4.24 5.75,-6.66 8.51,-10.03 l 0.91,-0.24 -0.23,1.19 c -3.22,2.87 -6,6.2 -9.19,9.08 z"
       id="path28" />
  </g>
  <g
     id="#989898ff"
     transform="translate(0,-0.7349981)">
    <path
       fill="#989898"
       opacity="1"
       d="m 266.48,40.84 c 3.19,-2.88 5.97,-6.21 9.19,-9.08 2.42,1.37 5.3,1.29 7.91,2.08 -3.21,3.07 -6.04,6.55 -9.5,9.36 -2.1,-2.17 -5.12,-0.72 -7.67,-0.52 l 0.06,-1.79 c 0,-0.02 0,-0.04 0.01,-0.05 z"
       id="path29" />
    <path
       fill="#989898"
       opacity="1"
       d="m 294.35,33.8 c 2.98,-0.91 6.12,-0.99 9.21,-1.19 2.75,3.08 6.5,5.5 8.11,9.43 -2.57,0.17 -5.54,-0.59 -7.73,1.16 -3.55,-2.76 -6.34,-6.32 -9.59,-9.4 z"
       id="path30" />
  </g>
  <g
     id="#969696ff"
     transform="translate(0,-0.7349981)">
    <path
       fill="#969696"
       opacity="1"
       d="m 235.75,33.01 c 3.63,3.56 7.16,7.21 10.79,10.77 -3.26,0.57 -6.56,0.66 -9.86,0.61 -3.17,-2.88 -5.99,-6.11 -9.04,-9.11 2.72,-0.46 6.52,0.68 8.11,-2.27 z"
       id="path31" />
  </g>
  <g
     id="#939393ff"
     transform="translate(0,-0.7349981)">
    <path
       fill="#939393"
       opacity="1"
       d="m 159.35,49.13 c 5.07,-4.99 10,-10.11 15.08,-15.09 2.58,0.92 5.2,1.73 7.87,2.36 -4.65,4.59 -9.09,9.39 -13.76,13.96 -3.09,-0.19 -6.19,-0.46 -9.19,-1.23 z"
       id="path32" />
  </g>
  <g
     id="#929292ff"
     transform="translate(0,-0.7349981)">
    <path
       fill="#929292"
       opacity="1"
       d="m 191.29,39.19 c 2.99,-0.74 6.63,0.39 8.92,-2.17 -0.02,2.59 0.05,5.19 0.05,7.78 -1.55,4.51 -6.98,3.02 -10.64,3.71 0.34,-1.75 0.5,-3.53 0.5,-5.32 0.31,-1.36 0.74,-2.68 1.17,-4 z"
       id="path33" />
    <path
       fill="#929292"
       opacity="1"
       d="m 2.74,40.61 c 1.43,0.42 2.52,-0.92 3.85,-1.19 5.46,0.59 10.96,0.28 16.44,0.36 14.48,-0.21 28.99,0.45 43.44,-0.35 1.4,0.49 2.69,1.24 4,1.92 0.04,0.1 0.13,0.3 0.17,0.4 0.36,1.54 1.29,2.41 2.78,2.62 0.03,0.08 0.08,0.23 0.11,0.31 0.4,1.44 1.33,2.36 2.78,2.74 0.06,0.03 0.18,0.08 0.24,0.11 0.17,0.45 0.5,1.37 0.67,1.82 -3.59,1.03 -7.26,0.54 -10.68,-0.81 -1.32,-1.11 -2.68,-2.41 -4.56,-2.02 -17.31,0.09 -34.62,-0.16 -51.92,0.12 0.97,1.72 3.06,2.16 4.63,3.14 C 10.95,52.37 6.5,50.14 2.4,51.04 0.91,49.36 0.92,47.09 1.14,44.98 1.39,43.41 3.45,42.3 2.74,40.61 Z"
       id="path34" />
    <path
       fill="#929292"
       opacity="1"
       d="m 286.13,86.81 c 0.37,1.61 0.88,3.18 1.38,4.75 1.17,0.51 2.36,1.01 3.55,1.5 0.38,2.68 -1.17,6.26 1.02,8.32 -2.17,1.89 -4.91,0.74 -7.31,0.05 0.34,-0.36 1.02,-1.09 1.35,-1.45 -0.17,-3.68 -0.57,-7.36 -0.23,-11.04 0.06,-0.53 0.18,-1.6 0.24,-2.13 z"
       id="path35" />
  </g>
  <g
     id="#0404046b"
     transform="translate(0,-0.7349981)">
    <path
       fill="#040404"
       opacity="0.42"
       d="m 2.74,40.61 c 1.56,-2.4 4.69,-2.4 7.24,-2.46 18.01,0.05 36.02,0 54.03,0.02 2.39,0.15 5.75,0.33 6.46,3.18 -1.31,-0.68 -2.6,-1.43 -4,-1.92 -1.46,-0.43 -2.99,-0.37 -4.49,-0.39 -17,0.01 -33.99,0.01 -50.99,0 -1.47,0.01 -2.97,-0.02 -4.4,0.38 -1.33,0.27 -2.42,1.61 -3.85,1.19 z"
       id="path36" />
  </g>
  <g
     id="#05050572"
     transform="translate(0,-0.7349981)">
    <path
       fill="#050505"
       opacity="0.45"
       d="m 84.56,41.43 c 0.12,-2.63 3.35,-2.89 5.36,-3.17 13.06,-0.07 26.12,-0.05 39.18,-0.01 2.03,0.19 4.93,0.52 5.35,2.99 -1.32,-0.66 -2.64,-1.36 -4.04,-1.84 -9.08,-0.79 -18.27,-0.13 -27.39,-0.35 -4.79,0.17 -9.64,-0.4 -14.38,0.35 -1.48,0.41 -2.76,1.29 -4.08,2.03 z"
       id="path37" />
  </g>
  <g
     id="#6b6b6bff"
     transform="translate(0,-0.7349981)">
    <path
       fill="#6b6b6b"
       opacity="1"
       d="m 6.59,39.42 c 1.43,-0.4 2.93,-0.37 4.4,-0.38 17,0.01 33.99,0.01 50.99,0 1.5,0.02 3.03,-0.04 4.49,0.39 -14.45,0.8 -28.96,0.14 -43.44,0.35 C 17.55,39.7 12.05,40.01 6.59,39.42 Z"
       id="path38" />
    <path
       fill="#6b6b6b"
       opacity="1"
       d="m 88.64,39.4 c 4.74,-0.75 9.59,-0.18 14.38,-0.35 9.12,0.22 18.31,-0.44 27.39,0.35 -8.46,0.75 -16.96,0.22 -25.44,0.37 -5.44,-0.08 -10.91,0.29 -16.33,-0.37 z"
       id="path39" />
    <path
       fill="#6b6b6b"
       opacity="1"
       d="m 292.38,73.76 c 1.97,-1.24 4.48,-0.36 6.59,0.1 l -0.17,0.96 c -0.55,3.02 -0.69,6.1 -0.67,9.17 -1.94,0.04 -3.88,0.12 -5.81,0.25 -0.35,2.35 -0.76,4.69 -1.19,7.02 -0.1,-2.77 -0.14,-5.54 -0.09,-8.31 0.01,-1.24 0.03,-2.47 0.06,-3.71 0.34,-1.84 0.65,-3.71 1.28,-5.48 z"
       id="path40" />
  </g>
  <g
     id="#919191ff"
     transform="translate(0,-0.7349981)">
    <path
       fill="#919191"
       opacity="1"
       d="m 84.56,41.43 c 1.32,-0.74 2.6,-1.62 4.08,-2.03 5.42,0.66 10.89,0.29 16.33,0.37 8.48,-0.15 16.98,0.38 25.44,-0.37 1.4,0.48 2.72,1.18 4.04,1.84 0.04,0.13 0.11,0.38 0.15,0.5 0.69,1.71 1.8,3.37 1.53,5.31 0.37,2.48 -1.84,4.08 -2.53,6.25 l -0.15,0.37 -0.56,0.07 c -1.31,0.26 -2.07,1.08 -2.27,2.47 -0.18,0.13 -0.53,0.37 -0.71,0.5 -0.54,0.36 -1.63,1.08 -2.17,1.44 -2.31,-2.05 -5.65,-1.16 -8.38,-2.24 2.91,-3.19 6.26,-5.96 9.04,-9.26 -12.59,-0.24 -25.21,-0.23 -37.81,0.01 2.84,3.29 6.18,6.08 9.1,9.3 -2.73,0.86 -5.91,0.37 -8.39,1.91 l -0.25,0.92 c -1.72,-3.72 -6.02,-5.47 -7.57,-9.35 -1.35,-2.57 0.12,-5.32 0.97,-7.78 0.03,-0.06 0.08,-0.17 0.11,-0.23 z"
       id="path41" />
  </g>
  <g
     id="#1b1b1bc7"
     transform="translate(0,-0.7349981)">
    <path
       fill="#1b1b1b"
       opacity="0.78"
       d="m 0,45.06 c 0.6,-1.67 1.43,-3.24 2.74,-4.45 0.71,1.69 -1.35,2.8 -1.6,4.37 -0.22,2.11 -0.23,4.38 1.26,6.06 0.32,0.59 0.97,1.79 1.29,2.39 L 2.22,52.88 C 1.4,51.65 0.68,50.35 0,49.03 Z"
       id="path42" />
  </g>
  <g
     id="#292929f9"
     transform="translate(0,-0.7349981)">
    <path
       fill="#292929"
       opacity="0.98"
       d="m 70.64,41.75 c 1.41,0.36 2.34,1.23 2.78,2.62 C 71.93,44.16 71,43.29 70.64,41.75 Z"
       id="path43" />
  </g>
  <g
     id="#1a1a1ad8"
     transform="translate(0,-0.7349981)">
    <path
       fill="#1a1a1a"
       opacity="0.85"
       d="m 81.99,45.95 c 0.41,-1.44 0.49,-4.28 2.46,-4.29 -0.85,2.46 -2.32,5.21 -0.97,7.78 1.55,3.88 5.85,5.63 7.57,9.35 l -1.3,-0.41 C 86.66,54.66 81.22,51.55 81.99,45.95 Z"
       id="path44" />
  </g>
  <g
     id="#131313ce"
     transform="translate(0,-0.7349981)">
    <path
       fill="#131313"
       opacity="0.81"
       d="m 134.6,41.74 1.07,-0.07 c 2.19,3.65 1.88,8.66 -1.24,11.7 L 133.6,53.3 c 0.69,-2.17 2.9,-3.77 2.53,-6.25 0.27,-1.94 -0.84,-3.6 -1.53,-5.31 z"
       id="path45" />
  </g>
  <g
     id="#898989ff"
     transform="translate(0,-0.7349981)">
    <path
       fill="#898989"
       opacity="1"
       d="m 168.73,54.99 c 4.39,-4.47 8.91,-8.83 13.39,-13.21 3.08,0.96 5.12,4.49 7.5,6.73 3.66,-0.69 9.09,0.8 10.64,-3.71 0,1.69 0.02,3.37 0.04,5.06 -0.08,1.66 -0.19,3.32 -0.29,4.98 -0.49,0.93 -0.99,1.85 -1.51,2.77 -2.42,0.22 -4.84,0.39 -7.25,0.59 -0.45,2.9 -0.44,5.84 -0.38,8.78 -0.03,2.12 -0.29,4.23 -0.71,6.32 -0.47,-6.21 0.07,-12.42 -0.09,-18.63 -0.86,0.68 -1.72,1.36 -2.54,2.09 -6.1,-2.06 -12.74,0.63 -18.8,-1.77 z"
       id="path46" />
  </g>
  <g
     id="#8e8e8eff"
     transform="translate(0,-0.7349981)">
    <path
       fill="#8e8e8e"
       opacity="1"
       d="m 266.41,42.68 c 2.55,-0.2 5.57,-1.65 7.67,0.52 l 0.42,0.67 c 9.63,-0.06 19.28,0.08 28.92,-0.07 l 0.52,-0.6 c 2.19,-1.75 5.16,-0.99 7.73,-1.16 1.23,4.33 -1.99,9.42 -6.65,9.43 -10.66,-0.2 -21.34,-0.17 -32,-0.01 -4.29,-0.09 -7.5,-4.69 -6.61,-8.78 z"
       id="path47" />
  </g>
  <g
     id="#858585ff"
     transform="translate(0,-0.7349981)">
    <path
       fill="#858585"
       opacity="1"
       d="m 236.68,44.39 c 3.3,0.05 6.6,-0.04 9.86,-0.61 4.07,4.02 8.13,8.04 12.08,12.18 1.08,-0.66 1.88,-1.67 2.83,-2.5 3.51,-2.1 7.71,-1.06 11.57,-1.28 8.98,-0.68 17.99,-0.17 26.98,-0.34 5.43,0.79 11.06,-0.54 16.3,1.46 0.06,0.06 0.18,0.17 0.24,0.22 2.21,2.58 2.95,6.04 1.97,9.29 -2.39,-0.78 -4.89,-0.72 -7.34,-0.38 -0.45,-0.47 -1.37,-1.4 -1.82,-1.86 0.38,-0.31 1.15,-0.93 1.53,-1.24 -14.97,0.29 -29.94,0.1 -44.91,0.09 0.64,0.4 1.94,1.18 2.58,1.58 -4.43,1.79 -9.33,0.31 -13.92,1.35 -2.47,-2.28 -4.73,-4.76 -7.13,-7.09 -3.39,-3.3 -6.53,-6.85 -9.97,-10.08 z"
       id="path48" />
    <path
       fill="#858585"
       opacity="1"
       d="m 148.42,60.05 c 3.67,-3.61 7.23,-7.33 10.93,-10.92 3,0.77 6.1,1.04 9.19,1.23 -2.26,2.19 -4.37,4.52 -6.69,6.65 -1.83,1.67 -3.57,3.43 -5.34,5.16 -2.63,-1.32 -6.02,0.39 -8.09,-2.12 z"
       id="path49" />
    <path
       fill="#858585"
       opacity="1"
       d="m 83.41,97.6 c 1.11,1 2.28,2.22 3.92,1.81 5.56,-0.63 11.15,0.51 16.7,-0.35 4.08,-0.72 8.46,1.56 12.28,-0.63 1.73,0.78 3.48,1.49 5.2,2.29 6.35,3.33 13,6.18 19.04,10.05 -43.9,0.03 -87.79,-0.03 -131.69,0.03 2.43,-1.56 5.05,-2.74 7.64,-4 5.85,-2.77 11.5,-5.98 17.36,-8.73 2.03,0.11 4.08,0.21 6.11,-0.04 l 0.53,-0.09 c 7.46,3.86 14.85,7.93 22.48,11.44 4.49,-2.32 8.84,-4.91 13.3,-7.31 2.43,-1.39 5.12,-2.45 7.13,-4.47 z"
       id="path50" />
  </g>
  <g
     id="#292929fa"
     transform="translate(0,-0.7349981)">
    <path
       fill="#292929"
       opacity="0.98"
       d="m 73.53,44.68 c 1.49,0.35 2.42,1.26 2.78,2.74 -1.45,-0.38 -2.38,-1.3 -2.78,-2.74 z"
       id="path51" />
  </g>
  <g
     id="#c9c9c9ff"
     transform="translate(0,-0.7349981)">
    <path
       fill="#c9c9c9"
       opacity="1"
       d="m 237.53,45.18 c 3.44,3.23 6.58,6.78 9.97,10.08 -3.34,1.35 -6.96,0.57 -10.44,0.81 -6.82,0.48 -13.66,-0.19 -20.47,0.28 -3.14,-3.04 -6.22,-6.13 -9.32,-9.2 7.07,-1.81 14.42,0.06 21.6,-0.8 2.89,-0.5 6.26,1.07 8.66,-1.17 z"
       id="path52" />
  </g>
  <g
     id="#c8c8c8ff"
     transform="translate(0,-0.7349981)">
    <path
       fill="#c8c8c8"
       opacity="1"
       d="m 10.06,46.64 c 17.3,-0.28 34.61,-0.03 51.92,-0.12 1.88,-0.39 3.24,0.91 4.56,2.02 3.28,3.46 6.59,6.89 9.97,10.26 -10.5,0.33 -21.02,-0.55 -31.48,0.52 -1.53,-1.56 -2.95,-3.24 -4.78,-4.46 0.14,5.4 -0.1,10.8 -0.03,16.21 -0.74,-0.86 -1.52,-1.67 -2.34,-2.45 -1.89,-0.6 -2.78,1.35 -3.85,2.47 0.3,-3.95 0.16,-7.93 -0.05,-11.88 -6.5,-3 -12.86,-6.29 -19.29,-9.43 -1.57,-0.98 -3.66,-1.42 -4.63,-3.14 z"
       id="path53" />
    <path
       fill="#c8c8c8"
       opacity="1"
       d="m 90.59,46.66 c 12.6,-0.24 25.22,-0.25 37.81,-0.01 -2.78,3.3 -6.13,6.07 -9.04,9.26 -3.23,3.26 -6.5,6.47 -9.78,9.68 -3.44,-3.06 -6.59,-6.42 -9.89,-9.63 -2.92,-3.22 -6.26,-6.01 -9.1,-9.3 z"
       id="path54" />
  </g>
  <g
     id="#7f7f7fff"
     transform="translate(0,-0.7349981)">
    <path
       fill="#7f7f7f"
       opacity="1"
       d="m 206.59,47.36 c 0.17,-0.05 0.51,-0.16 0.68,-0.21 3.1,3.07 6.18,6.16 9.32,9.2 2.85,2.94 5.81,5.77 8.74,8.63 1.29,1.32 2.53,2.68 3.81,4.02 -3.16,0.84 -6.48,0.21 -9.62,1.13 -1.8,-1.84 -3.6,-3.71 -5.6,-5.33 0.01,0.75 0.05,2.26 0.06,3.01 -0.58,1.11 -1.09,2.31 -2,3.2 -1.56,0.94 -3.41,0.41 -5.09,0.23 -0.02,-2.51 -0.23,-5.02 -0.27,-7.54 0.06,-2.01 0.06,-4.02 0,-6.03 -0.07,-3.44 -0.02,-6.87 -0.03,-10.31 z"
       id="path55" />
  </g>
  <g
     id="#868686ff"
     transform="translate(0,-0.7349981)">
    <path
       fill="#868686"
       opacity="1"
       d="m 66.54,48.54 c 3.42,1.35 7.09,1.84 10.68,0.81 0.49,0.2 1.46,0.58 1.95,0.78 2.13,2.14 4.3,4.25 6.4,6.43 0.52,0.69 1.57,2.09 2.09,2.79 -3.26,1.27 -6.71,0.59 -10.08,0.36 C 77.31,59.49 76.77,59.03 76.51,58.8 73.13,55.43 69.82,52 66.54,48.54 Z"
       id="path56" />
    <path
       fill="#868686"
       opacity="1"
       d="m 222.68,107.89 c 4.05,-3.84 7.65,-8.12 11.76,-11.91 1.46,0.91 3.07,1.48 4.78,1.67 -3.08,3.25 -6.43,6.23 -9.47,9.52 -2.69,2.77 -5.56,5.35 -8.23,8.14 -1.37,-0.68 -2.71,-1.41 -4.01,-2.2 1.78,-1.68 3.45,-3.47 5.17,-5.22 z"
       id="path57" />
  </g>
  <g
     id="#282828fa"
     transform="translate(0,-0.7349981)">
    <path
       fill="#282828"
       opacity="0.98"
       d="m 76.55,47.53 c 1.31,0.39 2.18,1.26 2.62,2.6 -0.49,-0.2 -1.46,-0.58 -1.95,-0.78 -0.17,-0.45 -0.5,-1.37 -0.67,-1.82 z"
       id="path58" />
  </g>
  <g
     id="#828282ff"
     transform="translate(0,-0.7349981)">
    <path
       fill="#828282"
       opacity="1"
       d="m 2.4,51.04 c 4.1,-0.9 8.55,1.33 12.29,-1.26 6.43,3.14 12.79,6.43 19.29,9.43 0.21,3.95 0.35,7.93 0.05,11.88 -0.06,0.77 -0.16,2.32 -0.21,3.09 -0.26,-1.99 -0.71,-3.94 -1.16,-5.9 -2.26,-1.02 -4.35,0 -5.91,1.7 0.03,-1.92 0.07,-3.84 -0.01,-5.76 l -1.56,-0.21 -0.14,-0.03 c -0.55,-0.31 -1.66,-0.92 -2.21,-1.23 -0.38,-0.09 -1.14,-0.27 -1.52,-0.36 -0.19,-1.99 -2.82,-2.32 -4.4,-2.64 -0.44,-0.1 -1.33,-0.3 -1.78,-0.4 -0.66,-1.74 -2.87,-2.44 -4.56,-2.7 C 10.28,56.6 9.69,56.49 9.4,56.44 9.05,54.46 6.36,54.08 4.71,53.73 4.46,53.66 3.95,53.51 3.69,53.43 3.37,52.83 2.72,51.63 2.4,51.04 Z"
       id="path59" />
  </g>
  <g
     id="#aeaeaeff"
     transform="translate(0,-0.7349981)">
    <path
       fill="#aeaeae"
       opacity="1"
       d="m 200.3,49.86 c 0.3,3 0.59,6.01 0.48,9.03 -0.07,3.9 0.16,7.79 0.28,11.69 1.52,-1.07 3.32,-1.53 5.14,-1.76 0.05,4.69 0.08,9.4 -0.65,14.05 -1.42,0.25 -2.86,0.35 -4.25,-0.06 -0.6,-3.65 -0.54,-7.36 -1.1,-11.01 -0.16,-2.65 -0.17,-5.31 -0.16,-7.97 0,-3 -0.17,-5.99 -0.03,-8.99 0.1,-1.66 0.21,-3.32 0.29,-4.98 z"
       id="path60" />
  </g>
  <g
     id="#232323ea"
     transform="translate(0,-0.7349981)">
    <path
       fill="#232323"
       opacity="0.92"
       d="M 4.71,53.73 C 6.36,54.08 9.05,54.46 9.4,56.44 7.79,55.95 5.4,55.4 4.71,53.73 Z"
       id="path61" />
  </g>
  <g
     id="#242424f7"
     transform="translate(0,-0.7349981)">
    <path
       fill="#242424"
       opacity="0.97"
       d="m 130.62,56.21 c 0.2,-1.39 0.96,-2.21 2.27,-2.47 -0.04,1.48 -0.79,2.3 -2.27,2.47 z"
       id="path62" />
    <path
       fill="#242424"
       opacity="0.97"
       d="m 127.74,58.15 c 0.54,-0.36 1.63,-1.08 2.17,-1.44 0.12,1.48 -0.59,2.2 -2.13,2.14 z"
       id="path63" />
  </g>
  <g
     id="#777777ff"
     transform="translate(0,-0.7349981)">
    <path
       fill="#777777"
       opacity="1"
       d="m 40.25,54.86 c 1.83,1.22 3.25,2.9 4.78,4.46 4.1,4.27 8.47,8.26 12.59,12.51 -0.51,0.44 -1.54,1.31 -2.05,1.75 -2.17,-0.04 -4.36,-0.12 -6.49,0.37 l -0.71,-0.82 c -2.07,1.43 -4.54,1.66 -6.97,2.17 -0.13,3.35 -0.45,6.69 -1.12,9.98 -0.35,-4.74 -0.07,-9.48 -0.06,-14.21 -0.07,-5.41 0.17,-10.81 0.03,-16.21 z"
       id="path64" />
    <path
       fill="#777777"
       opacity="1"
       d="m 77.58,59.71 c 3.37,0.23 6.82,0.91 10.08,-0.36 l 0.68,-0.19 c 5.42,5.53 10.92,10.98 16.42,16.42 -2.79,1.75 -6.24,0.93 -9.24,2.08 -0.97,-0.92 -1.98,-1.8 -2.96,-2.71 C 87.55,69.89 82.69,64.67 77.58,59.71 Z"
       id="path65" />
  </g>
  <g
     id="#818181ff"
     transform="translate(0,-0.7349981)">
    <path
       fill="#818181"
       opacity="1"
       d="m 164.69,58.75 c 1.39,-1.21 2.76,-2.44 4.04,-3.76 6.06,2.4 12.7,-0.29 18.8,1.77 -2.51,2.68 -5.09,5.29 -7.61,7.97 -2.65,1.44 -5.83,0.24 -8.54,1.55 -2.33,-2.4 -5.18,-4.46 -6.69,-7.53 z"
       id="path66" />
  </g>
  <g
     id="#bbbbbbff"
     transform="translate(0,-0.7349981)">
    <path
       fill="#bbbbbb"
       opacity="1"
       d="m 187.53,56.76 c 0.82,-0.73 1.68,-1.41 2.54,-2.09 0.16,6.21 -0.38,12.42 0.09,18.63 l -0.15,0.92 c -3.54,-2.98 -6.52,-6.55 -10.09,-9.49 2.52,-2.68 5.1,-5.29 7.61,-7.97 z"
       id="path67" />
  </g>
  <g
     id="#7d7d7dff"
     transform="translate(0,-0.7349981)">
    <path
       fill="#7d7d7d"
       opacity="1"
       d="m 198.5,57.61 c 0.52,-0.92 1.02,-1.84 1.51,-2.77 -0.14,3 0.03,5.99 0.03,8.99 -0.49,0.97 -0.99,1.94 -1.5,2.9 -2.53,0.5 -5.12,0.36 -7.67,0.25 -0.06,-2.94 -0.07,-5.88 0.38,-8.78 2.41,-0.2 4.83,-0.37 7.25,-0.59 z"
       id="path68" />
  </g>
  <g
     id="#c0c0c0ff"
     transform="translate(0,-0.7349981)">
    <path
       fill="#c0c0c0"
       opacity="1"
       d="m 247.5,55.26 c 2.4,2.33 4.66,4.81 7.13,7.09 l 0.89,0.84 c -3.91,1.88 -8.35,0.79 -12.51,1.01 -5.89,0.25 -11.9,-0.71 -17.68,0.78 -2.93,-2.86 -5.89,-5.69 -8.74,-8.63 6.81,-0.47 13.65,0.2 20.47,-0.28 3.48,-0.24 7.1,0.54 10.44,-0.81 z"
       id="path69" />
  </g>
  <g
     id="#7c7c7cff"
     transform="translate(0,-0.7349981)">
    <path
       fill="#7c7c7c"
       opacity="1"
       d="m 99.69,55.96 c 3.3,3.21 6.45,6.57 9.89,9.63 3.28,-3.21 6.55,-6.42 9.78,-9.68 2.73,1.08 6.07,0.19 8.38,2.24 l 0.04,0.7 0.02,0.74 -0.64,0.13 c -1.44,0.17 -2.23,0.95 -2.39,2.36 l -0.07,0.6 -0.8,0.1 c -1.33,0.22 -2.06,1.01 -2.2,2.38 l -0.07,0.46 -0.55,0.09 c -1.34,0.17 -2.12,0.9 -2.35,2.2 -0.02,0.14 -0.06,0.43 -0.08,0.57 -2.77,0.54 -3.92,3.96 -6.79,4.37 -1.77,0.15 -3.59,0.19 -5.35,-0.11 -3.32,-1.74 -5.19,-5.41 -8.45,-7.08 -2.54,-1.57 -4.34,-4.25 -6.64,-6.21 -0.03,-0.39 -0.09,-1.19 -0.12,-1.58 2.48,-1.54 5.66,-1.05 8.39,-1.91 z"
       id="path70" />
  </g>
  <g
     id="#0c0c0cc4"
     transform="translate(0,-0.7349981)">
    <path
       fill="#0c0c0c"
       opacity="0.77"
       d="m 10.57,56.65 c 1.69,0.26 3.9,0.96 4.56,2.7 -1.6,-0.49 -4.17,-0.73 -4.56,-2.7 z"
       id="path71" />
  </g>
  <g
     id="#252525fa"
     transform="translate(0,-0.7349981)">
    <path
       fill="#252525"
       opacity="0.98"
       d="m 85.57,56.56 c 1.27,0.46 2.2,1.33 2.77,2.6 l -0.68,0.19 c -0.52,-0.7 -1.57,-2.1 -2.09,-2.79 z"
       id="path72" />
  </g>
  <g
     id="#b9b9b9ff"
     transform="translate(0,-0.7349981)">
    <path
       fill="#b9b9b9"
       opacity="1"
       d="m 45.03,59.32 c 10.46,-1.07 20.98,-0.19 31.48,-0.52 0.26,0.23 0.8,0.69 1.07,0.91 5.11,4.96 9.97,10.18 14.98,15.24 -2.45,0.74 -5.01,0.48 -7.49,0.09 -5.7,-1 -11.4,1.21 -17.1,0.14 -2.14,-0.53 -4.26,-0.03 -6.24,0.79 -1.35,-1.4 -2.75,-2.75 -4.11,-4.14 C 53.5,67.58 49.13,63.59 45.03,59.32 Z"
       id="path73" />
  </g>
  <g
     id="#bdbdbdff"
     transform="translate(0,-0.7349981)">
    <path
       fill="#bdbdbd"
       opacity="1"
       d="m 200.78,58.89 c 1.78,-1.04 3.8,-1.32 5.84,-1.22 0.06,2.01 0.06,4.02 0,6.03 -0.13,1.71 -0.31,3.41 -0.42,5.12 -1.82,0.23 -3.62,0.69 -5.14,1.76 -0.12,-3.9 -0.35,-7.79 -0.28,-11.69 z"
       id="path74" />
    <path
       fill="#bdbdbd"
       opacity="1"
       d="m 265.97,59.42 c 14.97,0.01 29.94,0.2 44.91,-0.09 -0.38,0.31 -1.15,0.93 -1.53,1.24 -5.93,3.03 -11.99,5.8 -17.88,8.89 -0.13,0.33 -0.38,0.98 -0.5,1.3 -1.52,-1.03 -3.23,-1.6 -5.08,-1.53 -5.99,-2.26 -11.51,-5.59 -17.34,-8.23 -0.64,-0.4 -1.94,-1.18 -2.58,-1.58 z"
       id="path75" />
  </g>
  <g
     id="#202020e8"
     transform="translate(0,-0.7349981)">
    <path
       fill="#202020"
       opacity="0.91"
       d="m 16.91,59.75 c 1.58,0.32 4.21,0.65 4.4,2.64 -1.6,-0.35 -3.78,-0.96 -4.4,-2.64 z"
       id="path76" />
  </g>
  <g
     id="#1e1e1ef6"
     transform="translate(0,-0.7349981)">
    <path
       fill="#1e1e1e"
       opacity="0.96"
       d="m 124.77,62.08 c 0.16,-1.41 0.95,-2.19 2.39,-2.36 -0.17,1.4 -0.96,2.19 -2.39,2.36 z"
       id="path77" />
  </g>
  <g
     id="#7a7a7aff"
     transform="translate(0,-0.7349981)">
    <path
       fill="#7a7a7a"
       opacity="1"
       d="m 142.36,66.62 c 1.69,-2.48 3.93,-4.48 6.06,-6.57 2.07,2.51 5.46,0.8 8.09,2.12 -2.5,2.52 -4.92,5.12 -7.45,7.63 -1.76,1.25 -3.84,1.81 -5.94,1.08 -0.3,-1.41 -0.56,-2.83 -0.76,-4.26 z"
       id="path78" />
  </g>
  <g
     id="#787878ff"
     transform="translate(0,-0.7349981)">
    <path
       fill="#787878"
       opacity="1"
       d="m 268.55,61 c 5.83,2.64 11.35,5.97 17.34,8.23 0.13,1.84 0.23,3.68 0.26,5.53 l -0.07,1.15 c -1.92,-2.41 -5.04,-2.85 -7.8,-1.76 -2.19,-0.82 -4.25,-1.93 -6.38,-2.87 -1.94,2.18 -4.86,2.06 -7.46,1.36 -2.64,-3.45 -5.85,-6.4 -8.92,-9.45 l -0.89,-0.84 c 4.59,-1.04 9.49,0.44 13.92,-1.35 z"
       id="path79" />
    <path
       fill="#787878"
       opacity="1"
       d="m 291.47,69.46 c 5.89,-3.09 11.95,-5.86 17.88,-8.89 0.45,0.46 1.37,1.39 1.82,1.86 2.45,-0.34 4.95,-0.4 7.34,0.38 -3.56,5.84 -11.71,6.04 -16.28,10.61 -0.08,0.02 -0.24,0.07 -0.32,0.09 -0.73,0.09 -2.21,0.26 -2.94,0.35 -2.11,-0.46 -4.62,-1.34 -6.59,-0.1 -0.63,1.77 -0.94,3.64 -1.28,5.48 -0.05,-2.83 -0.13,-5.65 -0.13,-8.48 0.12,-0.32 0.37,-0.97 0.5,-1.3 z"
       id="path80" />
  </g>
  <g
     id="#111111e7"
     transform="translate(0,-0.7349981)">
    <path
       fill="#111111"
       opacity="0.91"
       d="m 22.83,62.75 c 0.55,0.31 1.66,0.92 2.21,1.23 -0.48,-0.1 -1.45,-0.31 -1.93,-0.41 z"
       id="path81" />
  </g>
  <g
     id="#212121f7"
     transform="translate(0,-0.7349981)">
    <path
       fill="#212121"
       opacity="0.97"
       d="m 121.7,65.16 c 0.14,-1.37 0.87,-2.16 2.2,-2.38 0,1.46 -0.74,2.25 -2.2,2.38 z"
       id="path82" />
  </g>
  <g
     id="#b3b3b3ff"
     transform="translate(0,-0.7349981)">
    <path
       fill="#b3b3b3"
       opacity="1"
       d="m 255.52,63.19 c 3.07,3.05 6.28,6 8.92,9.45 -3.19,2.52 -5.93,5.54 -8.8,8.41 -2.37,2.39 -4.87,4.65 -7.17,7.11 -1.15,-0.82 -2.32,-1.61 -3.34,-2.58 -0.96,-2.31 -3.16,-3.7 -4.79,-5.49 -3.63,-3.8 -7.52,-7.34 -11.2,-11.09 -1.28,-1.34 -2.52,-2.7 -3.81,-4.02 5.78,-1.49 11.79,-0.53 17.68,-0.78 4.16,-0.22 8.6,0.87 12.51,-1.01 z"
       id="path83" />
  </g>
  <g
     id="#292929ef"
     transform="translate(0,-0.7349981)">
    <path
       fill="#292929"
       opacity="0.94"
       d="m 25.18,64.01 1.56,0.21 c 0.08,1.92 0.04,3.84 0.01,5.76 -0.02,6 0.14,12.01 0.1,18.02 0.02,1.86 -0.07,3.72 -0.19,5.58 -3.15,1.89 -6.53,3.36 -9.76,5.12 -1.41,0.66 -2.88,1.73 -4.54,1.17 4.36,-2.62 9.11,-4.52 13.54,-7.01 0.05,-8.97 0,-17.93 0.03,-26.89 -0.19,-0.49 -0.56,-1.47 -0.75,-1.96 z"
       id="path84" />
  </g>
  <g
     id="#737373ff"
     transform="translate(0,-0.7349981)">
    <path
       fill="#737373"
       opacity="1"
       d="m 198.54,66.73 c 0.51,-0.96 1.01,-1.93 1.5,-2.9 -0.01,2.66 0,5.32 0.16,7.97 -0.03,0.52 -0.09,1.55 -0.12,2.06 -0.66,1.04 -1.21,2.19 -2.14,3.02 -5.14,0.44 -10.32,-0.33 -15.44,0.52 -1.36,-1.36 -2.74,-2.69 -4.12,-4.03 -2.37,-2.33 -4.66,-4.73 -7,-7.09 2.71,-1.31 5.89,-0.11 8.54,-1.55 3.57,2.94 6.55,6.51 10.09,9.49 l 0.15,-0.92 c 0.42,-2.09 0.68,-4.2 0.71,-6.32 2.55,0.11 5.14,0.25 7.67,-0.25 z"
       id="path85" />
  </g>
  <g
     id="#9e9e9eff"
     transform="translate(0,-0.7349981)">
    <path
       fill="#9e9e9e"
       opacity="1"
       d="m 206.62,63.7 c 0.04,2.52 0.25,5.03 0.27,7.54 -0.08,4.19 -0.05,8.39 -0.19,12.58 -0.34,3.33 -0.56,6.68 -0.95,10.02 -1.53,0.42 -3.09,0.71 -4.67,0.85 -0.33,-3.43 -0.42,-6.88 -0.97,-10.28 -0.05,-3.51 -0.15,-7.03 -0.03,-10.55 0.03,-0.51 0.09,-1.54 0.12,-2.06 0.56,3.65 0.5,7.36 1.1,11.01 1.39,0.41 2.83,0.31 4.25,0.06 0.73,-4.65 0.7,-9.36 0.65,-14.05 0.11,-1.71 0.29,-3.41 0.42,-5.12 z"
       id="path86" />
  </g>
  <g
     id="#1f1f1fdf"
     transform="translate(0,-0.7349981)">
    <path
       fill="#1f1f1f"
       opacity="0.87"
       d="m 98.06,65.66 c 3.26,1.67 5.13,5.34 8.45,7.08 1.76,0.3 3.58,0.26 5.35,0.11 2.87,-0.41 4.02,-3.83 6.79,-4.37 -2.01,3.17 -5.46,6.09 -9.46,5.77 -5,0.04 -7.73,-4.77 -11.11,-7.68 z"
       id="path87" />
  </g>
  <g
     id="#202020f7"
     transform="translate(0,-0.7349981)">
    <path
       fill="#202020"
       opacity="0.97"
       d="m 118.73,67.91 c 0.23,-1.3 1.01,-2.03 2.35,-2.2 -0.08,1.49 -0.86,2.22 -2.35,2.2 z"
       id="path88" />
  </g>
  <g
     id="#6c6b6bff"
     transform="translate(0,-0.7349981)">
    <path
       fill="#6c6b6b"
       opacity="1"
       d="m 143.44,75.58 c -1.35,-2.77 -2.41,-5.96 -1.08,-8.96 0.2,1.43 0.46,2.85 0.76,4.26 2.1,0.73 4.18,0.17 5.94,-1.08 1.6,1.46 3.16,2.95 4.67,4.5 4.05,4.26 8.45,8.17 12.49,12.44 -3.03,-0.08 -6.13,-0.05 -8.97,1.15 -0.42,-0.02 -1.27,-0.06 -1.69,-0.08 -0.06,-0.09 -0.18,-0.28 -0.24,-0.37 -0.2,-1.65 -1.12,-2.53 -2.76,-2.65 -0.07,-0.11 -0.2,-0.31 -0.26,-0.42 -0.24,-1.5 -1.12,-2.42 -2.64,-2.76 -0.11,-0.05 -0.33,-0.13 -0.44,-0.17 -0.1,-1.59 -0.96,-2.5 -2.58,-2.72 -0.11,-0.07 -0.33,-0.21 -0.44,-0.28 -0.11,-1.64 -0.98,-2.54 -2.61,-2.69 -0.04,-0.04 -0.11,-0.13 -0.15,-0.17 z"
       id="path89" />
  </g>
  <g
     id="#6d6d6dff"
     transform="translate(0,-0.7349981)">
    <path
       fill="#6d6d6d"
       opacity="1"
       d="m 26.75,69.98 c 1.56,-1.7 3.65,-2.72 5.91,-1.7 0.45,1.96 0.9,3.91 1.16,5.9 0.01,4.93 0.46,9.85 0.21,14.78 -0.08,1.42 -0.15,2.86 -0.21,4.29 -0.32,-2.24 -0.9,-4.44 -1.5,-6.61 -1.98,-1.08 -3.82,0.39 -5.47,1.36 0.04,-6.01 -0.12,-12.02 -0.1,-18.02 z"
       id="path90" />
    <path
       fill="#6d6d6d"
       opacity="1"
       d="m 211.98,71.01 c 0.91,-0.89 1.42,-2.09 2,-3.2 0.22,4.33 0.09,8.67 0.11,13.01 -0.67,1.04 -0.93,2.59 -2.18,3.11 -1.74,0.23 -3.49,-0.03 -5.21,-0.11 0.14,-4.19 0.11,-8.39 0.19,-12.58 1.68,0.18 3.53,0.71 5.09,-0.23 z"
       id="path91" />
    <path
       fill="#6d6d6d"
       opacity="1"
       d="m 264.44,72.64 c 2.6,0.7 5.52,0.82 7.46,-1.36 0.04,1.38 0.11,2.76 0.22,4.15 -0.1,0.2 -0.29,0.61 -0.38,0.82 -2.58,1.99 -4.65,4.53 -7.01,6.75 -3.02,-0.72 -6.07,-1.24 -9.09,-1.95 2.87,-2.87 5.61,-5.89 8.8,-8.41 z"
       id="path92" />
  </g>
  <g
     id="#abababff"
     transform="translate(0,-0.7349981)">
    <path
       fill="#ababab"
       opacity="1"
       d="m 34.03,71.09 c 1.07,-1.12 1.96,-3.07 3.85,-2.47 0.82,0.78 1.6,1.59 2.34,2.45 -0.01,4.73 -0.29,9.47 0.06,14.21 -0.01,0.64 -0.01,1.92 -0.02,2.57 -2.27,-1.3 -4.82,-1.41 -6.23,1.11 0.25,-4.93 -0.2,-9.85 -0.21,-14.78 0.05,-0.77 0.15,-2.32 0.21,-3.09 z"
       id="path93" />
  </g>
  <g
     id="#6f6f6fff"
     transform="translate(0,-0.7349981)">
    <path
       fill="#6f6f6f"
       opacity="1"
       d="m 219.52,70.13 c 3.14,-0.92 6.46,-0.29 9.62,-1.13 3.68,3.75 7.57,7.29 11.2,11.09 -3.15,0.85 -6.39,1.21 -9.63,1.25 -3.69,-3.78 -7.53,-7.4 -11.19,-11.21 z"
       id="path94" />
  </g>
  <g
     id="#b0b0b0ff"
     transform="translate(0,-0.7349981)">
    <path
       fill="#b0b0b0"
       opacity="1"
       d="m 285.89,69.23 c 1.85,-0.07 3.56,0.5 5.08,1.53 0,2.83 0.08,5.65 0.13,8.48 -0.03,1.24 -0.05,2.47 -0.06,3.71 -3.24,-1.59 -4.6,-4.73 -4.89,-8.19 -0.03,-1.85 -0.13,-3.69 -0.26,-5.53 z"
       id="path95" />
  </g>
  <g
     id="#696969ff"
     transform="translate(0,-0.7349981)">
    <path
       fill="#696969"
       opacity="1"
       d="m 57.62,71.83 c 1.36,1.39 2.76,2.74 4.11,4.14 3.84,4.19 8.25,7.82 11.97,12.12 -2.68,1.36 -5.76,1.06 -8.54,2.08 -5.28,-5.48 -10.93,-10.61 -16.08,-16.22 2.13,-0.49 4.32,-0.41 6.49,-0.37 0.51,-0.44 1.54,-1.31 2.05,-1.75 z"
       id="path96" />
    <path
       fill="#696969"
       opacity="1"
       d="m 197.94,76.88 c 0.93,-0.83 1.48,-1.98 2.14,-3.02 -0.12,3.52 -0.02,7.04 0.03,10.55 -0.49,1.35 -1.03,2.69 -1.57,4.02 -2.39,-0.32 -4.82,-0.81 -7.21,-0.19 -0.64,3.82 -0.52,7.7 -0.49,11.57 -0.1,2.16 -0.37,4.31 -0.56,6.46 -0.11,-2.14 -0.32,-4.28 -0.42,-6.42 -0.01,-4.01 0.33,-8.02 0.32,-12.03 0.05,-4.76 -5.13,-6.98 -7.68,-10.42 5.12,-0.85 10.3,-0.08 15.44,-0.52 z"
       id="path97" />
    <path
       fill="#696969"
       opacity="1"
       d="m 104.76,75.58 c 0.25,0.25 0.74,0.74 0.99,0.98 0.16,1.59 1.03,2.49 2.63,2.73 0.11,0.07 0.34,0.23 0.45,0.31 0.08,1.62 0.94,2.51 2.58,2.64 0.18,0.16 0.52,0.48 0.69,0.63 0.19,0.88 0.38,1.75 0.55,2.63 -2.71,-0.2 -5.4,0.12 -7.92,1.18 l -0.49,0.07 c -2.76,-3.16 -5.77,-6.1 -8.72,-9.09 3,-1.15 6.45,-0.33 9.24,-2.08 z"
       id="path98" />
  </g>
  <g
     id="#636464ff"
     transform="translate(0,-0.7349981)">
    <path
       fill="#636464"
       opacity="1"
       d="m 41.4,75.3 c 2.43,-0.51 4.9,-0.74 6.97,-2.17 -1,6.78 -0.51,13.78 -0.49,20.63 1.16,0.55 2.31,1.09 3.47,1.64 -3.02,0.61 -6.11,0.28 -9.17,0.39 -0.42,0.54 -1.26,1.61 -1.68,2.15 l -0.53,0.09 c 0.25,-3.39 0.3,-6.79 0.29,-10.18 0.01,-0.65 0.01,-1.93 0.02,-2.57 0.67,-3.29 0.99,-6.63 1.12,-9.98 z"
       id="path99" />
  </g>
  <g
     id="#a9a9a9ff"
     transform="translate(0,-0.7349981)">
    <path
       fill="#a9a9a9"
       opacity="1"
       d="m 168.96,73.82 c 3.14,-0.45 6.38,0.77 9.42,-0.45 1.38,1.34 2.76,2.67 4.12,4.03 2.55,3.44 7.73,5.66 7.68,10.42 -7.64,-1.83 -15.67,-0.96 -23.45,-0.54 l -0.51,-0.54 c -4.04,-4.27 -8.44,-8.18 -12.49,-12.44 5.07,-0.37 10.17,0.08 15.23,-0.48 z"
       id="path100" />
  </g>
  <g
     id="#6a6a6aff"
     transform="translate(0,-0.7349981)">
    <path
       fill="#6a6a6a"
       opacity="1"
       d="m 278.28,74.15 c 2.76,-1.09 5.88,-0.65 7.8,1.76 -0.33,3.63 0.05,7.27 0.05,10.9 -0.06,0.53 -0.18,1.6 -0.24,2.13 -1.75,-2.3 -4.67,-1.44 -7.1,-1.15 -0.27,-4.53 0.62,-9.22 -0.51,-13.64 z"
       id="path101" />
  </g>
  <g
     id="#a7a7a7ff"
     transform="translate(0,-0.7349981)">
    <path
       fill="#a7a7a7"
       opacity="1"
       d="m 61.73,75.97 c 1.98,-0.82 4.1,-1.32 6.24,-0.79 5.7,1.07 11.4,-1.14 17.1,-0.14 2.48,0.39 5.04,0.65 7.49,-0.09 0.98,0.91 1.99,1.79 2.96,2.71 2.95,2.99 5.96,5.93 8.72,9.09 -8.73,0.57 -17.5,0.01 -26.25,0.2 -1.46,0.09 -2.83,0.63 -4.2,1.09 L 73.7,88.09 C 69.98,83.79 65.57,80.16 61.73,75.97 Z"
       id="path102" />
  </g>
  <g
     id="#a2a2a2ff"
     transform="translate(0,-0.7349981)">
    <path
       fill="#a2a2a2"
       opacity="1"
       d="m 286.15,74.76 c 0.29,3.46 1.65,6.6 4.89,8.19 -0.05,2.77 -0.01,5.54 0.09,8.31 -0.02,0.45 -0.05,1.35 -0.07,1.8 -1.19,-0.49 -2.38,-0.99 -3.55,-1.5 -0.5,-1.57 -1.01,-3.14 -1.38,-4.75 0,-3.63 -0.38,-7.27 -0.05,-10.9 z"
       id="path103" />
  </g>
  <g
     id="#525252ff"
     transform="translate(0,-0.7349981)">
    <path
       fill="#525252"
       opacity="1"
       d="m 298.13,83.99 c -0.02,-3.07 0.12,-6.15 0.67,-9.17 0.03,7.08 -0.03,14.15 -0.03,21.23 5.46,3.03 11.2,5.56 16.67,8.58 1.6,0.9 2.69,2.47 3.37,4.15 -0.31,0.72 -0.93,2.17 -1.24,2.89 -19.39,-0.07 -38.8,0.6 -58.16,-0.39 -0.23,-0.61 -0.69,-1.83 -0.92,-2.44 0.71,-3.21 4.1,-4.17 6.01,-6.44 0.32,-0.08 0.98,-0.24 1.3,-0.32 1.65,0.29 4.13,-0.46 4.2,-2.44 0.43,-0.2 1.29,-0.59 1.73,-0.79 1.64,0.54 4.37,-0.19 4.36,-2.27 0.4,-0.09 1.19,-0.27 1.59,-0.36 l 1.04,-0.24 c 0.11,-2.73 0.03,-5.46 0.07,-8.19 2.43,-0.29 5.35,-1.15 7.1,1.15 -0.34,3.68 0.06,7.36 0.23,11.04 -0.33,0.36 -1.01,1.09 -1.35,1.45 -6.18,2.77 -12.29,5.82 -18.11,9.29 14.78,0.02 29.57,0.13 44.36,-0.06 -6.41,-2.91 -12.38,-6.77 -18.94,-9.28 -0.15,-1.99 -0.19,-3.98 0.08,-5.95 1.84,-0.19 3.69,-0.41 5.53,-0.63 0.52,-3.58 0.47,-7.2 0.44,-10.81 z"
       id="path104" />
  </g>
  <g
     id="#202020fd"
     transform="translate(0,-0.7349981)">
    <path
       fill="#202020"
       opacity="1"
       d="m 143.59,75.75 c 1.63,0.15 2.5,1.05 2.61,2.69 -1.26,-0.55 -2.13,-1.44 -2.61,-2.69 z"
       id="path105" />
  </g>
  <g
     id="#202020fb"
     transform="translate(0,-0.7349981)">
    <path
       fill="#202020"
       opacity="1"
       d="m 105.75,76.56 c 1.3,0.51 2.18,1.42 2.63,2.73 -1.6,-0.24 -2.47,-1.14 -2.63,-2.73 z"
       id="path106" />
  </g>
  <g
     id="#0a0a0ac4"
     transform="translate(0,-0.7349981)">
    <path
       fill="#0a0a0a"
       opacity="0.77"
       d="m 264.73,83 c 2.36,-2.22 4.43,-4.76 7.01,-6.75 -0.1,1.72 -1.57,2.73 -2.61,3.88 -16.82,16.62 -33.33,33.56 -50.3,50.01 0.42,-0.91 0.86,-1.8 1.31,-2.69 6.48,-6.23 12.9,-12.53 19.16,-18.98 4.98,-5.09 10.13,-10 15.09,-15.1 3.41,-3.49 6.94,-6.86 10.34,-10.37 z"
       id="path107" />
  </g>
  <g
     id="#222222fc"
     transform="translate(0,-0.7349981)">
    <path
       fill="#222222"
       opacity="1"
       d="m 146.64,78.72 c 1.62,0.22 2.48,1.13 2.58,2.72 -1.27,-0.5 -2.13,-1.41 -2.58,-2.72 z"
       id="path108" />
  </g>
  <g
     id="#1e1e1efa"
     transform="translate(0,-0.7349981)">
    <path
       fill="#1e1e1e"
       opacity="0.98"
       d="m 108.83,79.6 c 1.24,0.52 2.1,1.4 2.58,2.64 -1.64,-0.13 -2.5,-1.02 -2.58,-2.64 z"
       id="path109" />
  </g>
  <g
     id="#636363ff"
     transform="translate(0,-0.7349981)">
    <path
       fill="#636363"
       opacity="1"
       d="m 230.71,81.34 c 3.24,-0.04 6.48,-0.4 9.63,-1.25 1.63,1.79 3.83,3.18 4.79,5.49 -3.45,2.84 -6.21,6.39 -9.55,9.35 -2.92,-1 -6.04,-1.04 -9.09,-1.33 2.74,-2.73 5.57,-5.38 8.13,-8.28 -1.29,-1.34 -2.59,-2.67 -3.91,-3.98 z"
       id="path110" />
  </g>
  <g
     id="#606060ff"
     transform="translate(0,-0.7349981)">
    <path
       fill="#606060"
       opacity="1"
       d="m 211.91,83.93 c 1.25,-0.52 1.51,-2.07 2.18,-3.11 0.01,4 0.01,8 0.01,12 -0.53,0.96 -1.07,1.9 -1.63,2.83 -1.88,0.22 -3.77,0.39 -5.66,0.48 0.08,-4.1 0.14,-8.21 -0.11,-12.31 1.72,0.08 3.47,0.34 5.21,0.11 z"
       id="path111" />
    <path
       fill="#606060"
       opacity="1"
       d="m 292.32,84.24 c 1.93,-0.13 3.87,-0.21 5.81,-0.25 0.03,3.61 0.08,7.23 -0.44,10.81 -1.84,0.22 -3.69,0.44 -5.53,0.63 -0.27,1.97 -0.23,3.96 -0.08,5.95 -2.19,-2.06 -0.64,-5.64 -1.02,-8.32 0.02,-0.45 0.05,-1.35 0.07,-1.8 0.43,-2.33 0.84,-4.67 1.19,-7.02 z"
       id="path112" />
  </g>
  <g
     id="#626262ff"
     transform="translate(0,-0.7349981)">
    <path
       fill="#626262"
       opacity="1"
       d="m 255.64,81.05 c 3.02,0.71 6.07,1.23 9.09,1.95 -3.4,3.51 -6.93,6.88 -10.34,10.37 -3.26,0.07 -6.54,-0.19 -9.63,-1.26 1.26,-1.29 2.48,-2.63 3.71,-3.95 2.3,-2.46 4.8,-4.72 7.17,-7.11 z"
       id="path113" />
  </g>
  <g
     id="#212121fd"
     transform="translate(0,-0.7349981)">
    <path
       fill="#212121"
       opacity="1"
       d="m 149.66,81.61 c 1.52,0.34 2.4,1.26 2.64,2.76 -1.43,-0.46 -2.31,-1.38 -2.64,-2.76 z"
       id="path114" />
  </g>
  <g
     id="#5c5c5cff"
     transform="translate(0,-0.7349981)">
    <path
       fill="#5c5c5c"
       opacity="1"
       d="m 112.1,82.87 c 0.97,0.83 1.85,1.76 2.71,2.71 0.09,1.64 0.95,2.49 2.6,2.56 0.05,0.06 0.16,0.18 0.22,0.23 0.9,2.34 3.12,5.13 5.96,4.54 0.24,0.1 0.72,0.3 0.96,0.4 2.35,3.1 6.72,3.83 9.93,5.92 -3.88,2.48 -8.72,0.27 -12.97,1.49 -1.72,-0.8 -3.47,-1.51 -5.2,-2.29 -4.07,-3.69 -7.75,-7.8 -11.58,-11.75 2.52,-1.06 5.21,-1.38 7.92,-1.18 -0.17,-0.88 -0.36,-1.75 -0.55,-2.63 z"
       id="path115" />
    <path
       fill="#5c5c5c"
       opacity="1"
       d="m 198.54,88.43 c 0.54,-1.33 1.08,-2.67 1.57,-4.02 -0.18,4.16 -0.12,8.33 -0.03,12.49 -0.74,0.96 -1.55,1.87 -2.39,2.74 -2.28,0.05 -4.56,0.11 -6.85,0.17 -0.03,-3.87 -0.15,-7.75 0.49,-11.57 2.39,-0.62 4.82,-0.13 7.21,0.19 z"
       id="path116" />
  </g>
  <g
     id="#8a8b8bff"
     transform="translate(0,-0.7349981)">
    <path
       fill="#8a8b8b"
       opacity="1"
       d="m 205.75,93.84 c 0.39,-3.34 0.61,-6.69 0.95,-10.02 0.25,4.1 0.19,8.21 0.11,12.31 -0.09,3.54 -0.14,7.07 -0.19,10.61 -0.2,2.06 -0.56,4.09 -0.73,6.15 -1.47,-0.13 -2.94,-0.27 -4.4,-0.42 -0.42,-2.25 -0.86,-4.5 -1.2,-6.77 -0.11,-2.93 -0.19,-5.87 -0.21,-8.8 -0.09,-4.16 -0.15,-8.33 0.03,-12.49 0.55,3.4 0.64,6.85 0.97,10.28 1.58,-0.14 3.14,-0.43 4.67,-0.85 z"
       id="path117" />
  </g>
  <g
     id="#1d1d1dfd"
     transform="translate(0,-0.7349981)">
    <path
       fill="#1d1d1d"
       opacity="1"
       d="m 152.56,84.79 c 1.64,0.12 2.56,1 2.76,2.65 -1.27,-0.52 -2.19,-1.4 -2.76,-2.65 z"
       id="path118" />
  </g>
  <g
     id="#565656ff"
     transform="translate(0,-0.7349981)">
    <path
       fill="#565656"
       opacity="1"
       d="m 26.85,88 c 1.65,-0.97 3.49,-2.44 5.47,-1.36 0.6,2.17 1.18,4.37 1.5,6.61 0.02,1.6 0.03,3.21 0.04,4.82 -5.86,2.75 -11.51,5.96 -17.36,8.73 -3.86,-2.79 -8.96,0.05 -13.28,-1.31 2.64,-2.15 6.49,-2.56 8.59,-5.33 0.14,-0.07 0.41,-0.22 0.55,-0.29 1.66,0.56 3.13,-0.51 4.54,-1.17 3.23,-1.76 6.61,-3.23 9.76,-5.12 0.12,-1.86 0.21,-3.72 0.19,-5.58 z"
       id="path119" />
  </g>
  <g
     id="#1e1e1efb"
     transform="translate(0,-0.7349981)">
    <path
       fill="#1e1e1e"
       opacity="1"
       d="m 114.81,85.58 c 1.22,0.48 2.08,1.34 2.6,2.56 -1.65,-0.07 -2.51,-0.92 -2.6,-2.56 z"
       id="path120" />
  </g>
  <g
     id="#9a9a9aff"
     transform="translate(0,-0.7349981)">
    <path
       fill="#9a9a9a"
       opacity="1"
       d="m 235.58,94.93 c 3.34,-2.96 6.1,-6.51 9.55,-9.35 1.02,0.97 2.19,1.76 3.34,2.58 -1.23,1.32 -2.45,2.66 -3.71,3.95 -1.85,1.84 -3.73,3.65 -5.54,5.54 -1.71,-0.19 -3.32,-0.76 -4.78,-1.67 z"
       id="path121" />
  </g>
  <g
     id="#999999ff"
     transform="translate(0,-0.7349981)">
    <path
       fill="#999999"
       opacity="1"
       d="m 34.03,88.96 c 1.41,-2.52 3.96,-2.41 6.23,-1.11 0.01,3.39 -0.04,6.79 -0.29,10.18 -2.03,0.25 -4.08,0.15 -6.11,0.04 -0.01,-1.61 -0.02,-3.22 -0.04,-4.82 0.06,-1.43 0.13,-2.87 0.21,-4.29 z"
       id="path122" />
    <path
       fill="#999999"
       opacity="1"
       d="m 73.79,88.04 c 1.37,-0.46 2.74,-1 4.2,-1.09 8.75,-0.19 17.52,0.37 26.25,-0.2 l 0.49,-0.07 c 3.83,3.95 7.51,8.06 11.58,11.75 -3.82,2.19 -8.2,-0.09 -12.28,0.63 -5.55,0.86 -11.14,-0.28 -16.7,0.35 -1.64,0.41 -2.81,-0.81 -3.92,-1.81 -3.21,-3.19 -6.64,-6.15 -9.62,-9.56 z"
       id="path123" />
    <path
       fill="#999999"
       opacity="1"
       d="m 166.73,87.28 c 7.78,-0.42 15.81,-1.29 23.45,0.54 0.01,4.01 -0.33,8.02 -0.32,12.03 -3.4,-0.24 -6.82,-0.12 -10.2,0.38 -1.48,-1.49 -3.01,-2.94 -4.48,-4.44 -2.74,-2.91 -5.75,-5.56 -8.45,-8.51 z"
       id="path124" />
  </g>
  <g
     id="#5e5e5eff"
     transform="translate(0,-0.7349981)">
    <path
       fill="#5e5e5e"
       opacity="1"
       d="m 157.25,87.89 c 2.84,-1.2 5.94,-1.23 8.97,-1.15 l 0.51,0.54 c 2.7,2.95 5.71,5.6 8.45,8.51 -3.39,0.26 -6.85,0.31 -10.09,1.5 -0.22,-0.21 -0.66,-0.64 -0.89,-0.85 -0.06,-1.68 -0.93,-2.54 -2.61,-2.58 -0.1,-0.13 -0.3,-0.39 -0.4,-0.52 -0.12,-1.57 -0.97,-2.44 -2.56,-2.61 -0.18,-0.13 -0.55,-0.38 -0.74,-0.5 -0.16,-0.59 -0.48,-1.76 -0.64,-2.34 z"
       id="path125" />
  </g>
  <g
     id="#545454ff"
     transform="translate(0,-0.7349981)">
    <path
       fill="#545454"
       opacity="1"
       d="m 73.7,88.09 0.09,-0.05 c 2.98,3.41 6.41,6.37 9.62,9.56 -2.01,2.02 -4.7,3.08 -7.13,4.47 -4.46,2.4 -8.81,4.99 -13.3,7.31 -7.63,-3.51 -15.02,-7.58 -22.48,-11.44 0.42,-0.54 1.26,-1.61 1.68,-2.15 3.06,-0.11 6.15,0.22 9.17,-0.39 l 1.28,-0.2 c 0.2,0.1 0.61,0.31 0.82,0.41 2.33,2.45 5.75,4.08 9.04,4.68 0.24,0.02 0.47,0.03 0.71,0.04 2.87,-0.61 5.23,-2.51 7.86,-3.73 -1.48,-2.53 -4.06,-4.17 -5.9,-6.43 2.78,-1.02 5.86,-0.72 8.54,-2.08 z"
       id="path126" />
    <path
       fill="#545454"
       opacity="1"
       d="m 244.76,92.11 c 3.09,1.07 6.37,1.33 9.63,1.26 -4.96,5.1 -10.11,10.01 -15.09,15.1 -3.13,-0.82 -6.4,-0.61 -9.55,-1.3 3.04,-3.29 6.39,-6.27 9.47,-9.52 1.81,-1.89 3.69,-3.7 5.54,-5.54 z"
       id="path127" />
    <path
       fill="#545454"
       opacity="1"
       d="m 212.47,95.65 c 0.56,-0.93 1.1,-1.87 1.63,-2.83 0.02,4.37 -0.08,8.75 0.07,13.12 4.13,-4.08 8.16,-8.28 12.32,-12.34 3.05,0.29 6.17,0.33 9.09,1.33 l -1.14,1.05 c -4.11,3.79 -7.71,8.07 -11.76,11.91 -5.13,-1.97 -10.73,-0.53 -16.06,-1.15 0.05,-3.54 0.1,-7.07 0.19,-10.61 1.89,-0.09 3.78,-0.26 5.66,-0.48 z"
       id="path128" />
  </g>
  <g
     id="#1f1f1ffc"
     transform="translate(0,-0.7349981)">
    <path
       fill="#1f1f1f"
       opacity="1"
       d="m 155.56,87.81 c 0.42,0.02 1.27,0.06 1.69,0.08 0.16,0.58 0.48,1.75 0.64,2.34 -1.06,-0.53 -1.84,-1.34 -2.33,-2.42 z"
       id="path129" />
  </g>
  <g
     id="#191919e4"
     transform="translate(0,-0.7349981)">
    <path
       fill="#191919"
       opacity="0.89"
       d="m 117.63,88.37 c 2.07,1.41 3.74,3.34 5.96,4.54 -2.84,0.59 -5.06,-2.2 -5.96,-4.54 z"
       id="path130" />
  </g>
  <g
     id="#1e1e1efc"
     transform="translate(0,-0.7349981)">
    <path
       fill="#1e1e1e"
       opacity="1"
       d="m 158.63,90.73 c 1.59,0.17 2.44,1.04 2.56,2.61 -1.31,-0.45 -2.16,-1.32 -2.56,-2.61 z"
       id="path131" />
  </g>
  <g
     id="#141414d8"
     transform="translate(0,-0.7349981)">
    <path
       fill="#141414"
       opacity="0.85"
       d="m 124.55,93.31 c 4.43,1.89 8.78,4.01 12.93,6.46 -1.01,-0.17 -2.01,-0.35 -3,-0.54 -3.21,-2.09 -7.58,-2.82 -9.93,-5.92 z"
       id="path132" />
  </g>
  <g
     id="#191919fd"
     transform="translate(0,-0.7349981)">
    <path
       fill="#191919"
       opacity="1"
       d="m 161.59,93.86 c 1.68,0.04 2.55,0.9 2.61,2.58 -1.18,-0.54 -2.06,-1.4 -2.61,-2.58 z"
       id="path133" />
  </g>
  <g
     id="#101010d3"
     transform="translate(0,-0.7349981)">
    <path
       fill="#101010"
       opacity="0.83"
       d="m 53.45,95.61 c 3.14,1.26 6.39,2.53 9.04,4.68 -3.29,-0.6 -6.71,-2.23 -9.04,-4.68 z"
       id="path134" />
  </g>
  <g
     id="#505050ff"
     transform="translate(0,-0.7349981)">
    <path
       fill="#505050"
       opacity="1"
       d="m 165.09,97.29 c 3.24,-1.19 6.7,-1.24 10.09,-1.5 1.47,1.5 3,2.95 4.48,4.44 3.33,3.43 6.72,6.83 10.34,9.97 0.1,-1.31 0.2,-2.62 0.28,-3.93 0.19,-2.15 0.46,-4.3 0.56,-6.46 2.29,-0.06 4.57,-0.12 6.85,-0.17 0.84,-0.87 1.65,-1.78 2.39,-2.74 0.02,2.93 0.1,5.87 0.21,8.8 l -0.11,1.06 c -0.7,1.05 -1.27,2.25 -2.27,3.04 -6.42,0.35 -12.78,2.59 -19.23,1.22 -0.15,-0.16 -0.45,-0.48 -0.59,-0.63 0.07,-1.71 -0.74,-2.52 -2.42,-2.43 -0.16,-0.15 -0.47,-0.45 -0.63,-0.6 0.1,-1.71 -0.71,-2.52 -2.42,-2.42 -0.52,-0.52 -1.04,-1.04 -1.55,-1.56 0.05,-1.7 -0.77,-2.52 -2.45,-2.47 -0.15,-0.14 -0.46,-0.44 -0.61,-0.58 0.09,-1.66 -0.71,-2.48 -2.39,-2.45 z"
       id="path135" />
  </g>
  <g
     id="#171717eb"
     transform="translate(0,-0.7349981)">
    <path
       fill="#171717"
       opacity="0.92"
       d="m 271.73,98.85 c 1.26,-1.04 2.73,-1.97 4.36,-2.27 0.01,2.08 -2.72,2.81 -4.36,2.27 z"
       id="path136" />
  </g>
  <g
     id="#1b1b1afb"
     transform="translate(0,-0.7349981)">
    <path
       fill="#1b1b1a"
       opacity="1"
       d="m 165.62,97.88 c 1.68,-0.03 2.48,0.79 2.39,2.45 -1.16,-0.49 -1.95,-1.31 -2.39,-2.45 z"
       id="path137" />
  </g>
  <g
     id="#464646ff"
     transform="translate(0,-0.7349981)">
    <path
       fill="#464646"
       opacity="1"
       d="m 134.48,99.23 c 0.99,0.19 1.99,0.37 3,0.54 0.15,0.08 0.45,0.23 0.6,0.3 2.67,3.18 7.78,3.28 9.93,7.08 3.02,4.38 -0.61,11.35 -6.01,11.16 -43.99,0.12 -87.98,0 -131.97,0.06 -2.52,0.05 -5.46,-0.12 -7.11,-2.33 -2.91,-2.83 -2.7,-7.85 0.3,-10.55 4.32,1.36 9.42,-1.48 13.28,1.31 -2.59,1.26 -5.21,2.44 -7.64,4 43.9,-0.06 87.79,0 131.69,-0.03 -6.04,-3.87 -12.69,-6.72 -19.04,-10.05 4.25,-1.22 9.09,0.99 12.97,-1.49 z"
       id="path138" />
  </g>
  <g
     id="#8a8a8aff"
     transform="translate(0,-0.7349981)">
    <path
       fill="#8a8a8a"
       opacity="1"
       d="m 179.66,100.23 c 3.38,-0.5 6.8,-0.62 10.2,-0.38 0.1,2.14 0.31,4.28 0.42,6.42 -0.08,1.31 -0.18,2.62 -0.28,3.93 -3.62,-3.14 -7.01,-6.54 -10.34,-9.97 z"
       id="path139" />
  </g>
  <g
     id="#161616e9"
     transform="translate(0,-0.7349981)">
    <path
       fill="#161616"
       opacity="0.91"
       d="m 265.8,102.08 c 0.75,-1.52 2.71,-1.94 4.2,-2.44 -0.07,1.98 -2.55,2.73 -4.2,2.44 z"
       id="path140" />
  </g>
  <g
     id="#181818fc"
     transform="translate(0,-0.7349981)">
    <path
       fill="#181818"
       opacity="1"
       d="m 168.62,100.91 c 1.68,-0.05 2.5,0.77 2.45,2.47 -1.13,-0.51 -1.95,-1.33 -2.45,-2.47 z"
       id="path141" />
  </g>
  <g
     id="#838383ff"
     transform="translate(0,-0.7349981)">
    <path
       fill="#838383"
       opacity="1"
       d="m 266.66,110.72 c 5.82,-3.47 11.93,-6.52 18.11,-9.29 2.4,0.69 5.14,1.84 7.31,-0.05 6.56,2.51 12.53,6.37 18.94,9.28 -14.79,0.19 -29.58,0.08 -44.36,0.06 z"
       id="path142" />
  </g>
  <g
     id="#171717fc"
     transform="translate(0,-0.7349981)">
    <path
       fill="#171717"
       opacity="1"
       d="m 172.62,104.94 c 1.71,-0.1 2.52,0.71 2.42,2.42 -1.11,-0.52 -1.91,-1.33 -2.42,-2.42 z"
       id="path143" />
  </g>
  <g
     id="#747474ff"
     transform="translate(0,-0.7349981)">
    <path
       fill="#747474"
       opacity="1"
       d="m 200.29,105.7 c 0.34,2.27 0.78,4.52 1.2,6.77 1.46,0.15 2.93,0.29 4.4,0.42 0.4,2.95 0.48,5.95 -0.16,8.87 -1.4,0.08 -3.16,0.98 -4.33,-0.16 -0.66,-1.89 -0.93,-3.89 -1.21,-5.87 -0.14,-2.98 -0.36,-5.98 -0.01,-8.97 z"
       id="path144" />
  </g>
  <g
     id="#454545ff"
     transform="translate(0,-0.7349981)">
    <path
       fill="#454545"
       opacity="1"
       d="m 197.91,109.8 c 1,-0.79 1.57,-1.99 2.27,-3.04 -0.35,2.99 -0.13,5.99 0.01,8.97 -0.02,0.83 -0.08,2.5 -0.1,3.33 -2.16,2.12 -5.45,2 -7.83,3.76 0.01,-1.33 0.03,-2.65 0.03,-3.98 -3.04,0.32 -6.26,0 -8.38,-2.46 0.27,-1.78 -0.49,-2.56 -2.28,-2.34 -1.02,-0.98 -2.01,-1.98 -2.95,-3.02 6.45,1.37 12.81,-0.87 19.23,-1.22 z"
       id="path145" />
    <path
       fill="#454545"
       opacity="1"
       d="m 265,118.29 c -4.62,0.11 -7.98,-5.26 -6.51,-9.45 0.23,0.61 0.69,1.83 0.92,2.44 19.36,0.99 38.77,0.32 58.16,0.39 0.31,-0.72 0.93,-2.17 1.24,-2.89 0.45,2.57 -0.24,5.1 -0.86,7.58 -0.15,0.15 -0.45,0.46 -0.59,0.61 -2.39,0.73 -4.82,1.55 -7.35,1.41 C 295,118.29 280,118.47 265,118.29 Z"
       id="path146" />
  </g>
  <g
     id="#656565ff"
     transform="translate(0,-0.7349981)">
    <path
       fill="#656565"
       opacity="1"
       d="m 205.89,112.89 c 0.17,-2.06 0.53,-4.09 0.73,-6.15 0.97,5.48 -0.2,11.01 0.21,16.51 0.98,-0.69 1.97,-1.37 2.89,-2.14 1.27,0.68 2.53,1.36 3.79,2.04 -0.89,1.01 -1.74,2.05 -2.63,3.06 -3.59,3.07 -6.55,7.11 -10.5,9.63 -0.06,-1.93 -0.07,-3.85 -0.08,-5.78 -0.05,-3.67 -0.36,-7.33 -0.21,-11 0.02,-0.83 0.08,-2.5 0.1,-3.33 0.28,1.98 0.55,3.98 1.21,5.87 1.17,1.14 2.93,0.24 4.33,0.16 0.64,-2.92 0.56,-5.92 0.16,-8.87 z"
       id="path147" />
  </g>
  <g
     id="#484948ff"
     transform="translate(0,-0.7349981)">
    <path
       fill="#484948"
       opacity="1"
       d="m 206.62,106.74 c 5.33,0.62 10.93,-0.82 16.06,1.15 -1.72,1.75 -3.39,3.54 -5.17,5.22 -2.75,2.52 -5.25,5.28 -7.79,8 -0.92,0.77 -1.91,1.45 -2.89,2.14 -0.41,-5.5 0.76,-11.03 -0.21,-16.51 z"
       id="path148" />
  </g>
  <g
     id="#424242ff"
     transform="translate(0,-0.7349981)">
    <path
       fill="#424242"
       opacity="1"
       d="m 229.75,107.17 c 3.15,0.69 6.42,0.48 9.55,1.3 -6.26,6.45 -12.68,12.75 -19.16,18.98 -3.1,-0.27 -6.2,-0.68 -9.26,-1.24 0.89,-1.01 1.74,-2.05 2.63,-3.06 2.68,-2.6 5.47,-5.1 8.01,-7.84 2.67,-2.79 5.54,-5.37 8.23,-8.14 z"
       id="path149" />
  </g>
  <g
     id="#171717fb"
     transform="translate(0,-0.7349981)">
    <path
       fill="#171717"
       opacity="1"
       d="m 175.67,107.96 c 1.68,-0.09 2.49,0.72 2.42,2.43 -1.12,-0.5 -1.92,-1.3 -2.42,-2.43 z"
       id="path150" />
  </g>
  <g
     id="#727272ff"
     transform="translate(0,-0.7349981)">
    <path
       fill="#727272"
       opacity="1"
       d="m 209.72,121.11 c 2.54,-2.72 5.04,-5.48 7.79,-8 1.3,0.79 2.64,1.52 4.01,2.2 -2.54,2.74 -5.33,5.24 -8.01,7.84 -1.26,-0.68 -2.52,-1.36 -3.79,-2.04 z"
       id="path151" />
  </g>
  <g
     id="#141314fc"
     transform="translate(0,-0.7349981)">
    <path
       fill="#141314"
       opacity="1"
       d="m 181.63,114.04 c 1.79,-0.22 2.55,0.56 2.28,2.34 -0.98,-0.57 -1.74,-1.36 -2.28,-2.34 z"
       id="path152" />
  </g>
  <g
     id="#393939ff"
     transform="translate(0,-0.7349981)">
    <path
       fill="#393939"
       opacity="1"
       d="m 192.26,122.82 c 2.38,-1.76 5.67,-1.64 7.83,-3.76 -0.15,3.67 0.16,7.33 0.21,11 -2.41,1.87 -5.63,2.02 -8.09,3.81 0.08,-3.68 0.01,-7.37 0.05,-11.05 z"
       id="path153" />
  </g>
  <g
     id="#2e2e2eff"
     transform="translate(0,-0.7349981)">
    <path
       fill="#2e2e2e"
       opacity="1"
       d="m 210.88,126.21 c 3.06,0.56 6.16,0.97 9.26,1.24 -0.45,0.89 -0.89,1.78 -1.31,2.69 -0.16,0.15 -0.49,0.46 -0.66,0.62 -1.64,0.01 -2.44,0.84 -2.38,2.48 -0.18,0.13 -0.54,0.38 -0.72,0.51 -1.6,0.11 -2.38,0.94 -2.35,2.5 -0.16,0.1 -0.46,0.29 -0.62,0.39 -1.4,0.14 -2.23,0.92 -2.49,2.32 -0.07,0.26 -0.21,0.78 -0.28,1.03 -1.44,0.07 -2.27,0.84 -2.48,2.29 -0.35,0.24 -1.04,0.73 -1.39,0.98 -2.12,0.4 -4.28,0.81 -6.44,0.63 -2.35,-0.42 -4.15,-2.16 -6.08,-3.42 -1.14,-2.01 -0.61,-4.41 -0.73,-6.6 2.46,-1.79 5.68,-1.94 8.09,-3.81 0.01,1.93 0.02,3.85 0.08,5.78 3.95,-2.52 6.91,-6.56 10.5,-9.63 z"
       id="path154" />
  </g>
  <g
     id="#030303ab"
     transform="translate(0,-0.7349981)">
    <path
       fill="#030303"
       opacity="0.67"
       d="m 215.79,133.24 c -0.06,-1.64 0.74,-2.47 2.38,-2.48 -0.41,1.18 -1.2,2.01 -2.38,2.48 z"
       id="path155" />
  </g>
  <g
     id="#040404ac"
     transform="translate(0,-0.7349981)">
    <path
       fill="#040404"
       opacity="0.67"
       d="m 212.72,136.25 c -0.03,-1.56 0.75,-2.39 2.35,-2.5 -0.34,1.27 -1.13,2.11 -2.35,2.5 z"
       id="path156" />
  </g>
  <g
     id="#040404ad"
     transform="translate(0,-0.7349981)">
    <path
       fill="#040404"
       opacity="0.68"
       d="m 209.61,138.96 c 0.26,-1.4 1.09,-2.18 2.49,-2.32 -0.22,1.43 -1.05,2.2 -2.49,2.32 z"
       id="path157" />
  </g>
  <g
     id="#00000054"
     transform="translate(0,-0.7349981)">
    <path
       fill="#000000"
       opacity="0.33"
       d="m 206.85,142.28 c 0.21,-1.45 1.04,-2.22 2.48,-2.29 -0.26,1.38 -1.09,2.14 -2.48,2.29 z"
       id="path158" />
  </g>
  <g
     id="#040404d2"
     transform="translate(0,-0.7349981)">
    <path
       fill="#040404"
       opacity="0.82"
       d="m 192.94,140.47 c 1.93,1.26 3.73,3 6.08,3.42 2.16,0.18 4.32,-0.23 6.44,-0.63 -0.59,0.43 -1.77,1.3 -2.36,1.74 h -5.03 c -2.05,-1.08 -4.39,-2.12 -5.13,-4.53 z"
       id="path159" />
  </g>
</svg>
