<?xml version="1.0" encoding="UTF-8" standalone="no"?>
<svg
   width="329.64001pt"
   height="61.697102pt"
   viewBox="0 0 329.64 61.697099"
   version="1.1"
   id="svg9"
   sodipodi:docname="WP_NetEye.svg"
   inkscape:version="1.3.2 (091e20e, 2023-11-25, custom)"
   xmlns:inkscape="http://www.inkscape.org/namespaces/inkscape"
   xmlns:sodipodi="http://sodipodi.sourceforge.net/DTD/sodipodi-0.dtd"
   xmlns="http://www.w3.org/2000/svg"
   xmlns:svg="http://www.w3.org/2000/svg">
  <defs
     id="defs9" />
  <sodipodi:namedview
     id="namedview9"
     pagecolor="#ffffff"
     bordercolor="#000000"
     borderopacity="0.25"
     inkscape:showpageshadow="false"
     inkscape:pageopacity="0.0"
     inkscape:pagecheckerboard="0"
     inkscape:deskcolor="#d1d1d1"
     inkscape:document-units="pt"
     showgrid="false"
     inkscape:zoom="4.7324456"
     inkscape:cx="83.360705"
     inkscape:cy="19.123305"
     inkscape:window-width="1920"
     inkscape:window-height="991"
     inkscape:window-x="-9"
     inkscape:window-y="-9"
     inkscape:window-maximized="1"
     inkscape:current-layer="#e30613ff"
     showborder="false"
     borderlayer="false"
     shape-rendering="crispEdges" />
  <g
     id="#1d1d1bff"
     transform="translate(0,-12.19)">
    <path
       fill="#1d1d1b"
       opacity="1"
       d="m 173.63,12.19 c 18.07,0.06 36.14,-0.01 54.21,0.03 -0.06,3.82 -0.06,7.63 0.03,11.45 -13,0.08 -26,0 -38.99,0.04 -0.04,2.64 -0.01,5.29 0.09,7.93 12.27,-0.09 24.55,-0.07 36.83,-0.01 -0.11,3.4 -0.11,6.8 -0.04,10.21 -12.29,0.07 -24.59,0 -36.88,0.03 -0.01,2.63 -0.01,5.26 0.02,7.89 13.28,0 26.56,-0.02 39.84,0.01 -0.06,3.98 -0.07,7.96 0.03,11.94 -18.42,-0.01 -36.86,0.21 -55.27,-0.11 0.29,-16.47 0.04,-32.94 0.13,-49.41 z"
       id="path2" />
    <path
       fill="#1d1d1b"
       opacity="1"
       d="m 290.39,28.26 c 5.38,-2.91 11.72,-1.73 17.57,-1.98 6.05,0.08 13.06,-0.4 17.95,3.84 4.47,4.51 3.37,11.39 3.53,17.15 -10.72,0.13 -21.47,-0.28 -32.18,0.21 0.46,1.81 0.06,4.36 2.06,5.36 2.92,1.63 6.47,0.93 9.67,1.11 3.18,0.03 7.74,0.19 8.43,-3.87 4.07,0.03 8.14,-0.07 12.22,0.13 -0.04,3.71 -1.13,7.8 -4.65,9.67 -6.13,3.23 -13.32,2.25 -19.99,2.44 -5.8,0.04 -12.6,0.15 -16.91,-4.41 -4.12,-4.59 -3.79,-11.19 -3.67,-16.94 0.07,-4.76 1.49,-10.25 5.97,-12.71 m 6.92,11.09 c 6.59,-0.07 13.21,0.33 19.78,-0.22 -0.88,-5.32 -7.06,-4.58 -11.1,-4.6 -3.52,-0.11 -8.89,-0.05 -8.68,4.82 z"
       id="path3" />
    <path
       fill="#1d1d1b"
       opacity="1"
       d="m 232.7,26.75 c 4.8,0.03 9.59,0.02 14.39,0.02 3.39,8 6.74,16.03 9.92,24.12 3.65,-7.91 6.68,-16.11 10.14,-24.12 4.79,-0.01 9.59,0.01 14.39,-0.02 -6.77,13.89 -13.17,27.97 -19.92,41.87 -3.45,6.3 -11.79,5.37 -17.84,4.98 0.02,-2.77 0.02,-5.55 0.01,-8.32 3.81,0.05 9.15,-0.19 10.04,-4.87 -1.65,-0.06 -3.29,-0.1 -4.93,-0.13 -5.5,-11.14 -10.64,-22.44 -16.2,-33.53 z"
       id="path4" />
  </g>
  <g
     id="#e30613ff"
     inkscape:label="#e30613ff"
     transform="translate(0,-12.19)">
    <path
       fill="#e30613"
       opacity="1"
       d="m 0,12.23 c 7.86,-0.04 15.72,0 23.58,-0.03 9.57,12.02 19.06,24.1 28.62,36.12 -0.16,-12.03 0.05,-24.06 -0.12,-36.09 5.09,-0.04 10.17,0 15.25,-0.04 0.01,16.52 -0.01,33.04 0.01,49.56 C 59.45,61.72 51.56,61.8 43.68,61.7 34.13,49.75 24.92,37.51 15.05,25.83 15.47,37.8 15.13,49.77 15.25,61.74 10.17,61.75 5.08,61.76 0,61.73 Z"
       id="path5" />
    <path
       fill="#e30613"
       opacity="1"
       d="m 130.57,18.56 c 4.44,0.01 8.88,-0.04 13.33,0.05 -0.11,2.72 -0.13,5.44 -0.12,8.16 6.82,0.01 13.63,-0.01 20.45,0.01 -0.02,3.18 -0.02,6.36 0,9.54 -6.78,-0.05 -13.56,0.11 -20.33,-0.1 -0.09,4.92 -0.37,9.88 0.11,14.77 1.85,2.54 5.6,1.86 8.27,1.35 2.52,-0.92 1.85,-3.93 1.93,-6.02 3.87,-0.02 7.74,-0.04 11.61,0.01 0.03,4.24 0.3,9.2 -3.22,12.28 -4.98,4.6 -12.31,3.66 -18.55,3.66 -5.3,-0.03 -11.62,-2.41 -12.92,-8.14 -1.04,-5.86 -0.35,-11.86 -0.45,-17.78 -2.2,-0.03 -4.39,-0.05 -6.59,-0.06 0.1,-3.16 0.11,-6.33 0.02,-9.5 2.19,-0.01 4.38,-0.03 6.57,-0.07 -0.06,-2.72 -0.09,-5.44 -0.11,-8.16 z"
       id="path6" />
    <path
       fill="#e30613"
       opacity="1"
       d="m 80.6,28.65 c 5.49,-3.43 12.24,-2.1 18.35,-2.37 6.04,0.08 13.03,-0.37 17.85,3.93 4.38,4.5 3.3,11.33 3.44,17.06 -10.67,0.02 -21.33,-0.04 -32,0.03 -0.02,2.39 0.28,5.55 3.14,6.15 4.46,0.79 9.09,0.64 13.57,0.13 1.83,-0.21 2.81,-1.81 3.18,-3.47 4.1,0 8.21,-0.13 12.32,0.12 -0.12,3.41 -0.86,7.28 -3.99,9.23 -5.78,3.6 -12.95,2.7 -19.43,2.85 C 91.09,62.29 84.22,62.78 79.49,58.5 75.04,54.29 75.1,47.68 75.21,42.02 75.22,37.16 76.22,31.5 80.6,28.65 m 7.46,10.57 c 6.75611,0.03183 13.13,0.13 19.7,0.12 -0.25,-2.58 -2.1,-4.64 -4.79,-4.6 C 99.930826,34.60914 96.583325,34.611486 93.571902,34.628694 90.185328,34.648046 89.127267,36.334773 88.06,39.22 Z"
       id="path8"
       sodipodi:nodetypes="cccccccccccccccccsc" />
  </g>
</svg>
